<?xml version="1.0" encoding="UTF-8" standalone="no"?>
<!-- Created with Inkscape (http://www.inkscape.org/) -->

<svg
   width="210mm"
   height="297mm"
   viewBox="0 0 210 297"
   version="1.1"
   id="svg1"
   sodipodi:docname="dots_logo.svg"
   inkscape:version="1.3 (0e150ed6c4, 2023-07-21)"
   xmlns:inkscape="http://www.inkscape.org/namespaces/inkscape"
   xmlns:sodipodi="http://sodipodi.sourceforge.net/DTD/sodipodi-0.dtd"
   xmlns="http://www.w3.org/2000/svg"
   xmlns:svg="http://www.w3.org/2000/svg">
  <sodipodi:namedview
     id="namedview1"
     pagecolor="#ffffff"
     bordercolor="#000000"
     borderopacity="0.25"
     inkscape:showpageshadow="2"
     inkscape:pageopacity="0.0"
     inkscape:pagecheckerboard="0"
     inkscape:deskcolor="#d1d1d1"
     inkscape:document-units="mm"
     inkscape:zoom="1.4485269"
     inkscape:cx="381.76715"
     inkscape:cy="297.19848"
     inkscape:window-width="1920"
     inkscape:window-height="1009"
     inkscape:window-x="1912"
     inkscape:window-y="-8"
     inkscape:window-maximized="1"
     inkscape:current-layer="layer1" />
  <defs
     id="defs1" />
  <g
     inkscape:label="Layer 1"
     inkscape:groupmode="layer"
     id="layer1">
    <path
       id="text1"
       style="font-style:normal;font-variant:normal;font-weight:normal;font-stretch:normal;font-size:50.8px;font-family:Bazaronite;-inkscape-font-specification:Bazaronite;fill:#ff0000;stroke:#000000;stroke-width:0.141023"
       d="M 165.32066 103.48516 C 164.67719 103.48516 164.13518 103.68854 163.69492 104.09494 C 163.28852 104.5352 163.08514 105.07721 163.08514 105.72068 C 163.08514 107.17694 163.83053 107.90504 165.32066 107.90504 C 165.93026 107.90504 166.4382 107.68488 166.8446 107.24462 C 167.28486 106.83822 167.50502 106.33028 167.50502 105.72068 C 167.50502 104.23055 166.77692 103.48516 165.32066 103.48516 z " />
    <path
       id="path279"
       style="font-style:normal;font-variant:normal;font-weight:normal;font-stretch:normal;font-size:50.8px;font-family:Bazaronite;-inkscape-font-specification:Bazaronite;fill:#ff0000;stroke:#000000;stroke-width:0.141023"
       d="M 160.24035 103.48516 C 159.59688 103.48516 159.05539 103.68854 158.61512 104.09494 C 158.20872 104.5352 158.00534 105.07721 158.00534 105.72068 C 158.00534 107.17694 158.75022 107.90504 160.24035 107.90504 C 160.84995 107.90504 161.35789 107.68488 161.76429 107.24462 C 162.20455 106.83822 162.42471 106.33028 162.42471 105.72068 C 162.42471 104.23055 161.69661 103.48516 160.24035 103.48516 z " />
    <path
       id="path350"
       style="font-style:normal;font-variant:normal;font-weight:normal;font-stretch:normal;font-size:50.8px;font-family:Bazaronite;-inkscape-font-specification:Bazaronite;fill:#ffff00;stroke:#000000;stroke-width:0.141023"
       d="M 155.16056 103.48516 C 154.51709 103.48516 153.97508 103.68854 153.53481 104.09494 C 153.12841 104.5352 152.92555 105.07721 152.92555 105.72068 C 152.92555 107.17694 153.67042 107.90504 155.16056 107.90504 C 155.77014 107.90504 156.27809 107.68488 156.68449 107.24462 C 157.12476 106.83822 157.34492 106.33028 157.34492 105.72068 C 157.34492 104.23055 156.61681 103.48516 155.16056 103.48516 z " />
    <path
       id="path278"
       style="font-style:normal;font-variant:normal;font-weight:normal;font-stretch:normal;font-size:50.8px;font-family:Bazaronite;-inkscape-font-specification:Bazaronite;fill:#ff0000;stroke:#000000;stroke-width:0.141023"
       d="M 150.08024 103.48516 C 149.43679 103.48516 148.89529 103.68854 148.45502 104.09494 C 148.04862 104.5352 147.84524 105.07721 147.84524 105.72068 C 147.84524 107.17694 148.59012 107.90504 150.08024 107.90504 C 150.68984 107.90504 151.1983 107.68488 151.6047 107.24462 C 152.04497 106.83822 152.26512 106.33028 152.26512 105.72068 C 152.26512 104.23055 151.53651 103.48516 150.08024 103.48516 z " />
    <path
       id="path349"
       style="font-style:normal;font-variant:normal;font-weight:normal;font-stretch:normal;font-size:50.8px;font-family:Bazaronite;-inkscape-font-specification:Bazaronite;fill:#ffff00;stroke:#000000;stroke-width:0.141023"
       d="M 145.00045 103.48516 C 144.35699 103.48516 143.81498 103.68854 143.37471 104.09494 C 142.96831 104.5352 142.76545 105.07721 142.76545 105.72068 C 142.76545 107.17694 143.51032 107.90504 145.00045 107.90504 C 145.61005 107.90504 146.11799 107.68488 146.52439 107.24462 C 146.96466 106.83822 147.18481 106.33028 147.18481 105.72068 C 147.18481 104.23055 146.45672 103.48516 145.00045 103.48516 z " />
    <path
       id="path277"
       style="font-style:normal;font-variant:normal;font-weight:normal;font-stretch:normal;font-size:50.8px;font-family:Bazaronite;-inkscape-font-specification:Bazaronite;fill:#ff0000;stroke:#000000;stroke-width:0.141023"
       d="M 122.80077 103.48516 C 122.15731 103.48516 121.61582 103.68854 121.17555 104.09494 C 120.76915 104.5352 120.56577 105.07721 120.56577 105.72068 C 120.56577 107.17694 121.31064 107.90504 122.80077 107.90504 C 123.41037 107.90504 123.91831 107.68488 124.32471 107.24462 C 124.76498 106.83822 124.98514 106.33028 124.98514 105.72068 C 124.98514 104.23055 124.25704 103.48516 122.80077 103.48516 z " />
    <path
       id="path334"
       style="font-style:normal;font-variant:normal;font-weight:normal;font-stretch:normal;font-size:50.8px;font-family:Bazaronite;-inkscape-font-specification:Bazaronite;fill:#ffff00;stroke:#000000;stroke-width:0.141023"
       d="M 117.72098 103.48516 C 117.07751 103.48516 116.53551 103.68854 116.09524 104.09494 C 115.68884 104.5352 115.48597 105.07721 115.48597 105.72068 C 115.48597 107.17694 116.23085 107.90504 117.72098 107.90504 C 118.33058 107.90504 118.83852 107.68488 119.24492 107.24462 C 119.68518 106.83822 119.90534 106.33028 119.90534 105.72068 C 119.90534 104.23055 119.17725 103.48516 117.72098 103.48516 z " />
    <path
       id="path276"
       style="font-style:normal;font-variant:normal;font-weight:normal;font-stretch:normal;font-size:50.8px;font-family:Bazaronite;-inkscape-font-specification:Bazaronite;fill:#ff0000;stroke:#000000;stroke-width:0.141023"
       d="M 89.069499 103.48516 C 88.426033 103.48516 87.88454 103.68854 87.444275 104.09494 C 87.037875 104.5352 86.834493 105.07721 86.834493 105.72068 C 86.834493 107.17694 87.579368 107.90504 89.069499 107.90504 C 89.679097 107.90504 90.187555 107.68488 90.593953 107.24462 C 91.03422 106.83822 91.254378 106.33028 91.254378 105.72068 C 91.254378 104.23055 90.525762 103.48516 89.069499 103.48516 z " />
    <path
       id="path322"
       style="font-style:normal;font-variant:normal;font-weight:normal;font-stretch:normal;font-size:50.8px;font-family:Bazaronite;-inkscape-font-specification:Bazaronite;fill:#ffff00;stroke:#000000;stroke-width:0.141023"
       d="M 83.989705 103.48516 C 83.34624 103.48516 82.80423 103.68854 82.363965 104.09494 C 81.957565 104.5352 81.7547 105.07721 81.7547 105.72068 C 81.7547 107.17694 82.499576 107.90504 83.989705 107.90504 C 84.599305 107.90504 85.107245 107.68488 85.513643 107.24462 C 85.95391 106.83822 86.174068 106.33028 86.174068 105.72068 C 86.174068 104.23055 85.44597 103.48516 83.989705 103.48516 z " />
    <path
       id="path275"
       style="font-style:normal;font-variant:normal;font-weight:normal;font-stretch:normal;font-size:50.8px;font-family:Bazaronite;-inkscape-font-specification:Bazaronite;fill:#ff0000;stroke:#000000;stroke-width:0.141023"
       d="M 78.909912 103.48516 C 78.266447 103.48516 77.724437 103.68854 77.284172 104.09494 C 76.877772 104.5352 76.67439 105.07721 76.67439 105.72068 C 76.67439 107.17694 77.419782 107.90504 78.909912 107.90504 C 79.51951 107.90504 80.027452 107.68488 80.43385 107.24462 C 80.874116 106.83822 81.094275 106.33028 81.094275 105.72068 C 81.094275 104.23055 80.366176 103.48516 78.909912 103.48516 z " />
    <path
       id="path321"
       style="font-style:normal;font-variant:normal;font-weight:normal;font-stretch:normal;font-size:50.8px;font-family:Bazaronite;-inkscape-font-specification:Bazaronite;fill:#ffff00;stroke:#000000;stroke-width:0.141023"
       d="M 73.829602 103.48516 C 73.186137 103.48516 72.644644 103.68854 72.204378 104.09494 C 71.79798 104.5352 71.594596 105.07721 71.594596 105.72068 C 71.594596 107.17694 72.339472 107.90504 73.829602 107.90504 C 74.4392 107.90504 74.94714 107.68488 75.35354 107.24462 C 75.793806 106.83822 76.013965 106.33028 76.013965 105.72068 C 76.013965 104.23055 75.285866 103.48516 73.829602 103.48516 z " />
    <path
       id="path274"
       style="font-style:normal;font-variant:normal;font-weight:normal;font-stretch:normal;font-size:50.8px;font-family:Bazaronite;-inkscape-font-specification:Bazaronite;fill:#ff0000;stroke:#000000;stroke-width:0.141023"
       d="M 50.258431 103.48516 C 49.614965 103.48516 49.072957 103.68854 48.63269 104.09494 C 48.226291 104.5352 48.023425 105.07721 48.023425 105.72068 C 48.023425 107.17694 48.768299 107.90504 50.258431 107.90504 C 50.86803 107.90504 51.375969 107.68488 51.782369 107.24462 C 52.222635 106.83822 52.442794 106.33028 52.442794 105.72068 C 52.442794 104.23055 51.714696 103.48516 50.258431 103.48516 z " />
    <path
       id="path273"
       style="font-style:normal;font-variant:normal;font-weight:normal;font-stretch:normal;font-size:50.8px;font-family:Bazaronite;-inkscape-font-specification:Bazaronite;fill:#ffff00;stroke:#000000;stroke-width:0.141023"
       d="M 45.178638 103.48516 C 44.535172 103.48516 43.993163 103.68854 43.552897 104.09494 C 43.146499 104.5352 42.943115 105.07721 42.943115 105.72068 C 42.943115 107.17694 43.688507 107.90504 45.178638 107.90504 C 45.788236 107.90504 46.296176 107.68488 46.702576 107.24462 C 47.142841 106.83822 47.363 106.33028 47.363 105.72068 C 47.363 104.23055 46.634901 103.48516 45.178638 103.48516 z " />
    <path
       id="path291"
       style="font-style:normal;font-variant:normal;font-weight:normal;font-stretch:normal;font-size:50.8px;font-family:Bazaronite;-inkscape-font-specification:Bazaronite;fill:#ff0000;stroke:#000000;stroke-width:0.141023"
       d="M 40.098328 103.48516 C 39.454862 103.48516 38.913369 103.68854 38.473104 104.09494 C 38.066704 104.5352 37.863322 105.07721 37.863322 105.72068 C 37.863322 107.17694 38.608197 107.90504 40.098328 107.90504 C 40.707926 107.90504 41.216384 107.68488 41.622782 107.24462 C 42.063049 106.83822 42.28269 106.33028 42.28269 105.72068 C 42.28269 104.23055 41.554591 103.48516 40.098328 103.48516 z " />
    <path
       id="path272"
       style="font-style:normal;font-variant:normal;font-weight:normal;font-stretch:normal;font-size:50.8px;font-family:Bazaronite;-inkscape-font-specification:Bazaronite;fill:#ffff00;stroke:#000000;stroke-width:0.141023"
       d="M 35.018534 103.48516 C 34.375069 103.48516 33.833059 103.68854 33.392794 104.09494 C 32.986394 104.5352 32.783529 105.07721 32.783529 105.72068 C 32.783529 107.17694 33.528405 107.90504 35.018534 107.90504 C 35.628134 107.90504 36.136074 107.68488 36.542472 107.24462 C 36.982739 106.83822 37.202897 106.33028 37.202897 105.72068 C 37.202897 104.23055 36.474799 103.48516 35.018534 103.48516 z " />
    <path
       id="path287"
       style="font-style:normal;font-variant:normal;font-weight:normal;font-stretch:normal;font-size:50.8px;font-family:Bazaronite;-inkscape-font-specification:Bazaronite;fill:#ff0000;stroke:#000000;stroke-width:0.141023"
       d="M 29.938741 103.48516 C 29.295276 103.48516 28.753267 103.68854 28.313 104.09494 C 27.906602 104.5352 27.703219 105.07721 27.703219 105.72068 C 27.703219 107.17694 28.448611 107.90504 29.938741 107.90504 C 30.548339 107.90504 31.056279 107.68488 31.462679 107.24462 C 31.902945 106.83822 32.123104 106.33028 32.123104 105.72068 C 32.123104 104.23055 31.395005 103.48516 29.938741 103.48516 z " />
    <path
       id="path271"
       style="font-style:normal;font-variant:normal;font-weight:normal;font-stretch:normal;font-size:50.8px;font-family:Bazaronite;-inkscape-font-specification:Bazaronite;fill:#ffff00;stroke:#000000;stroke-width:0.141023"
       d="M 170.40045 98.405363 C 168.91032 98.405363 168.16545 99.133458 168.16545 100.58973 C 168.16545 101.23319 168.36831 101.7752 168.77471 102.21547 C 169.21498 102.62187 169.75699 102.82473 170.40045 102.82473 C 171.85672 102.82473 172.58481 102.07985 172.58481 100.58973 C 172.58481 99.980122 172.36466 99.472186 171.92439 99.065788 C 171.51799 98.625522 171.01005 98.405363 170.40045 98.405363 z " />
    <path
       id="path348"
       style="font-style:normal;font-variant:normal;font-weight:normal;font-stretch:normal;font-size:50.8px;font-family:Bazaronite;-inkscape-font-specification:Bazaronite;fill:#ffff00;stroke:#000000;stroke-width:0.141023"
       d="M 165.32066 98.405363 C 163.83053 98.405363 163.08514 99.133458 163.08514 100.58973 C 163.08514 101.23319 163.28852 101.7752 163.69492 102.21547 C 164.13518 102.62187 164.67719 102.82473 165.32066 102.82473 C 166.77692 102.82473 167.50502 102.07985 167.50502 100.58973 C 167.50502 99.980122 167.28486 99.472186 166.8446 99.065788 C 166.4382 98.625522 165.93026 98.405363 165.32066 98.405363 z " />
    <path
       id="path270"
       style="font-style:normal;font-variant:normal;font-weight:normal;font-stretch:normal;font-size:50.8px;font-family:Bazaronite;-inkscape-font-specification:Bazaronite;fill:#ff0000;stroke:#000000;stroke-width:0.141023"
       d="M 160.24035 98.405363 C 158.75022 98.405363 158.00534 99.133458 158.00534 100.58973 C 158.00534 101.23319 158.20872 101.7752 158.61512 102.21547 C 159.05539 102.62187 159.59688 102.82473 160.24035 102.82473 C 161.69661 102.82473 162.42471 102.07985 162.42471 100.58973 C 162.42471 99.980122 162.20455 99.472186 161.76429 99.065788 C 161.35789 98.625522 160.84995 98.405363 160.24035 98.405363 z " />
    <path
       id="path347"
       style="font-style:normal;font-variant:normal;font-weight:normal;font-stretch:normal;font-size:50.8px;font-family:Bazaronite;-inkscape-font-specification:Bazaronite;fill:#ffff00;stroke:#000000;stroke-width:0.141023"
       d="M 155.16056 98.405363 C 153.67042 98.405363 152.92555 99.133458 152.92555 100.58973 C 152.92555 101.23319 153.12841 101.7752 153.53481 102.21547 C 153.97508 102.62187 154.51709 102.82473 155.16056 102.82473 C 156.61681 102.82473 157.34492 102.07985 157.34492 100.58973 C 157.34492 99.980122 157.12476 99.472186 156.68449 99.065788 C 156.27809 98.625522 155.77014 98.405363 155.16056 98.405363 z " />
    <path
       id="path269"
       style="font-style:normal;font-variant:normal;font-weight:normal;font-stretch:normal;font-size:50.8px;font-family:Bazaronite;-inkscape-font-specification:Bazaronite;fill:#ffff00;stroke:#000000;stroke-width:0.141023"
       d="M 150.08024 98.405363 C 148.59012 98.405363 147.84524 99.133458 147.84524 100.58973 C 147.84524 101.23319 148.04862 101.7752 148.45502 102.21547 C 148.89529 102.62187 149.43679 102.82473 150.08024 102.82473 C 151.53651 102.82473 152.26512 102.07985 152.26512 100.58973 C 152.26512 99.980122 152.04497 99.472186 151.6047 99.065788 C 151.1983 98.625522 150.68984 98.405363 150.08024 98.405363 z " />
    <path
       id="path346"
       style="font-style:normal;font-variant:normal;font-weight:normal;font-stretch:normal;font-size:50.8px;font-family:Bazaronite;-inkscape-font-specification:Bazaronite;fill:#ff0000;stroke:#000000;stroke-width:0.141023"
       d="M 145.00045 98.405363 C 143.51032 98.405363 142.76545 99.133458 142.76545 100.58973 C 142.76545 101.23319 142.96831 101.7752 143.37471 102.21547 C 143.81498 102.62187 144.35699 102.82473 145.00045 102.82473 C 146.45672 102.82473 147.18481 102.07985 147.18481 100.58973 C 147.18481 99.980122 146.96466 99.472186 146.52439 99.065788 C 146.11799 98.625522 145.61005 98.405363 145.00045 98.405363 z " />
    <path
       id="path268"
       style="font-style:normal;font-variant:normal;font-weight:normal;font-stretch:normal;font-size:50.8px;font-family:Bazaronite;-inkscape-font-specification:Bazaronite;fill:#ffff00;stroke:#000000;stroke-width:0.141023"
       d="M 122.80077 98.405363 C 121.31064 98.405363 120.56577 99.133458 120.56577 100.58973 C 120.56577 101.23319 120.76915 101.7752 121.17555 102.21547 C 121.61582 102.62187 122.15731 102.82473 122.80077 102.82473 C 124.25704 102.82473 124.98514 102.07985 124.98514 100.58973 C 124.98514 99.980122 124.76498 99.472186 124.32471 99.065788 C 123.91831 98.625522 123.41037 98.405363 122.80077 98.405363 z " />
    <path
       id="path333"
       style="font-style:normal;font-variant:normal;font-weight:normal;font-stretch:normal;font-size:50.8px;font-family:Bazaronite;-inkscape-font-specification:Bazaronite;fill:#ff0000;stroke:#000000;stroke-width:0.141023"
       d="M 117.72098 98.405363 C 116.23085 98.405363 115.48597 99.133458 115.48597 100.58973 C 115.48597 101.23319 115.68884 101.7752 116.09524 102.21547 C 116.53551 102.62187 117.07751 102.82473 117.72098 102.82473 C 119.17725 102.82473 119.90534 102.07985 119.90534 100.58973 C 119.90534 99.980122 119.68518 99.472186 119.24492 99.065788 C 118.83852 98.625522 118.33058 98.405363 117.72098 98.405363 z " />
    <path
       id="path267"
       style="font-style:normal;font-variant:normal;font-weight:normal;font-stretch:normal;font-size:50.8px;font-family:Bazaronite;-inkscape-font-specification:Bazaronite;fill:#ffff00;stroke:#000000;stroke-width:0.141023"
       d="M 94.149809 98.405363 C 92.659678 98.405363 91.914286 99.133458 91.914286 100.58973 C 91.914286 101.23319 92.11767 101.7752 92.524068 102.21547 C 92.964334 102.62187 93.506343 102.82473 94.149809 102.82473 C 95.606072 102.82473 96.334172 102.07985 96.334172 100.58973 C 96.334172 99.980122 96.114012 99.472186 95.673747 99.065788 C 95.267347 98.625522 94.759407 98.405363 94.149809 98.405363 z " />
    <path
       id="path320"
       style="font-style:normal;font-variant:normal;font-weight:normal;font-stretch:normal;font-size:50.8px;font-family:Bazaronite;-inkscape-font-specification:Bazaronite;fill:#ff0000;stroke:#000000;stroke-width:0.141023"
       d="M 89.069499 98.405363 C 87.579368 98.405363 86.834493 99.133458 86.834493 100.58973 C 86.834493 101.23319 87.037875 101.7752 87.444275 102.21547 C 87.88454 102.62187 88.426033 102.82473 89.069499 102.82473 C 90.525762 102.82473 91.254378 102.07985 91.254378 100.58973 C 91.254378 99.980122 91.03422 99.472186 90.593953 99.065788 C 90.187555 98.625522 89.679097 98.405363 89.069499 98.405363 z " />
    <path
       id="path266"
       style="font-style:normal;font-variant:normal;font-weight:normal;font-stretch:normal;font-size:50.8px;font-family:Bazaronite;-inkscape-font-specification:Bazaronite;fill:#ffff00;stroke:#000000;stroke-width:0.141023"
       d="M 83.989705 98.405363 C 82.499576 98.405363 81.7547 99.133458 81.7547 100.58973 C 81.7547 101.23319 81.957565 101.7752 82.363965 102.21547 C 82.80423 102.62187 83.34624 102.82473 83.989705 102.82473 C 85.44597 102.82473 86.174068 102.07985 86.174068 100.58973 C 86.174068 99.980122 85.95391 99.472186 85.513643 99.065788 C 85.107245 98.625522 84.599305 98.405363 83.989705 98.405363 z " />
    <path
       id="path319"
       style="font-style:normal;font-variant:normal;font-weight:normal;font-stretch:normal;font-size:50.8px;font-family:Bazaronite;-inkscape-font-specification:Bazaronite;fill:#ffff00;stroke:#000000;stroke-width:0.141023"
       d="M 78.909912 98.405363 C 77.419782 98.405363 76.67439 99.133458 76.67439 100.58973 C 76.67439 101.23319 76.877772 101.7752 77.284172 102.21547 C 77.724437 102.62187 78.266447 102.82473 78.909912 102.82473 C 80.366176 102.82473 81.094275 102.07985 81.094275 100.58973 C 81.094275 99.980122 80.874116 99.472186 80.43385 99.065788 C 80.027452 98.625522 79.51951 98.405363 78.909912 98.405363 z " />
    <path
       id="path265"
       style="font-style:normal;font-variant:normal;font-weight:normal;font-stretch:normal;font-size:50.8px;font-family:Bazaronite;-inkscape-font-specification:Bazaronite;fill:#ff0000;stroke:#000000;stroke-width:0.141023"
       d="M 73.829602 98.405363 C 72.339472 98.405363 71.594596 99.133458 71.594596 100.58973 C 71.594596 101.23319 71.79798 101.7752 72.204378 102.21547 C 72.644644 102.62187 73.186137 102.82473 73.829602 102.82473 C 75.285866 102.82473 76.013965 102.07985 76.013965 100.58973 C 76.013965 99.980122 75.793806 99.472186 75.35354 99.065788 C 74.94714 98.625522 74.4392 98.405363 73.829602 98.405363 z " />
    <path
       id="path318"
       style="font-style:normal;font-variant:normal;font-weight:normal;font-stretch:normal;font-size:50.8px;font-family:Bazaronite;-inkscape-font-specification:Bazaronite;fill:#ffff00;stroke:#000000;stroke-width:0.141023"
       d="M 68.749809 98.405363 C 67.259678 98.405363 66.514286 99.133458 66.514286 100.58973 C 66.514286 101.23319 66.71767 101.7752 67.124068 102.21547 C 67.564334 102.62187 68.106343 102.82473 68.749809 102.82473 C 70.206072 102.82473 70.934172 102.07985 70.934172 100.58973 C 70.934172 99.980122 70.714012 99.472186 70.273747 99.065788 C 69.867347 98.625522 69.359407 98.405363 68.749809 98.405363 z " />
    <path
       id="path264"
       style="font-style:normal;font-variant:normal;font-weight:normal;font-stretch:normal;font-size:50.8px;font-family:Bazaronite;-inkscape-font-specification:Bazaronite;fill:#ff0000;stroke:#000000;stroke-width:0.141023"
       d="M 55.338741 98.405363 C 53.848611 98.405363 53.103219 99.133458 53.103219 100.58973 C 53.103219 101.23319 53.306602 101.7752 53.713 102.21547 C 54.153267 102.62187 54.695276 102.82473 55.338741 102.82473 C 56.795005 102.82473 57.523104 102.07985 57.523104 100.58973 C 57.523104 99.980122 57.302945 99.472186 56.862679 99.065788 C 56.456279 98.625522 55.948339 98.405363 55.338741 98.405363 z " />
    <path
       id="path298"
       style="font-style:normal;font-variant:normal;font-weight:normal;font-stretch:normal;font-size:50.8px;font-family:Bazaronite;-inkscape-font-specification:Bazaronite;fill:#ff0000;stroke:#000000;stroke-width:0.141023"
       d="M 50.258431 98.405363 C 48.7683 98.405363 48.023425 99.133458 48.023425 100.58973 C 48.023425 101.23319 48.226292 101.7752 48.63269 102.21547 C 49.072957 102.62187 49.614966 102.82473 50.258431 102.82473 C 51.714695 102.82473 52.442794 102.07985 52.442794 100.58973 C 52.442794 99.980122 52.222635 99.472186 51.782369 99.065788 C 51.375969 98.625522 50.868029 98.405363 50.258431 98.405363 z " />
    <path
       id="path263"
       style="font-style:normal;font-variant:normal;font-weight:normal;font-stretch:normal;font-size:50.8px;font-family:Bazaronite;-inkscape-font-specification:Bazaronite;fill:#ffff00;stroke:#000000;stroke-width:0.141023"
       d="M 45.178638 98.405363 C 43.688507 98.405363 42.943115 99.133458 42.943115 100.58973 C 42.943115 101.23319 43.146499 101.7752 43.552897 102.21547 C 43.993163 102.62187 44.535172 102.82473 45.178638 102.82473 C 46.634901 102.82473 47.363 102.07985 47.363 100.58973 C 47.363 99.980122 47.142841 99.472186 46.702576 99.065788 C 46.296176 98.625522 45.788236 98.405363 45.178638 98.405363 z " />
    <path
       id="path292"
       style="font-style:normal;font-variant:normal;font-weight:normal;font-stretch:normal;font-size:50.8px;font-family:Bazaronite;-inkscape-font-specification:Bazaronite;fill:#ffff00;stroke:#000000;stroke-width:0.141023"
       d="M 40.098328 98.405363 C 38.608197 98.405363 37.863322 99.133458 37.863322 100.58973 C 37.863322 101.23319 38.066704 101.7752 38.473104 102.21547 C 38.913369 102.62187 39.454862 102.82473 40.098328 102.82473 C 41.554591 102.82473 42.28269 102.07985 42.28269 100.58973 C 42.28269 99.980122 42.063049 99.472186 41.622782 99.065788 C 41.216384 98.625522 40.707926 98.405363 40.098328 98.405363 z " />
    <path
       id="path262"
       style="font-style:normal;font-variant:normal;font-weight:normal;font-stretch:normal;font-size:50.8px;font-family:Bazaronite;-inkscape-font-specification:Bazaronite;fill:#ff0000;stroke:#000000;stroke-width:0.141023"
       d="M 35.018534 98.405363 C 33.714671 98.405363 32.981135 98.962662 32.818152 100.07761 C 32.794869 100.23689 32.783529 100.40769 32.783529 100.58973 C 32.783529 100.75059 32.795852 100.9051 32.821252 101.05326 C 32.872052 101.3496 32.973745 101.6206 33.126143 101.86613 C 33.202343 101.9889 33.291194 102.1054 33.392794 102.21547 C 33.722992 102.52027 34.110497 102.71081 34.554997 102.78701 C 34.703163 102.81241 34.857669 102.82473 35.018534 102.82473 C 35.200567 102.82473 35.371369 102.81339 35.530648 102.79011 C 36.008484 102.72026 36.383629 102.54551 36.656677 102.26611 C 37.020744 101.89358 37.202897 101.33479 37.202897 100.58973 C 37.202897 100.28493 37.148116 100.00553 37.038049 99.751534 C 36.927983 99.497534 36.762605 99.268988 36.542472 99.065788 C 36.440872 98.955721 36.332761 98.859465 36.218461 98.776917 C 35.989861 98.611817 35.73615 98.501737 35.45675 98.446704 C 35.317052 98.419187 35.170934 98.405363 35.018534 98.405363 z " />
    <path
       id="path286"
       style="font-style:normal;font-variant:normal;font-weight:normal;font-stretch:normal;font-size:50.8px;font-family:Bazaronite;-inkscape-font-specification:Bazaronite;fill:#ffff00;stroke:#000000;stroke-width:0.141023"
       d="M 29.938741 98.405363 C 28.448611 98.405363 27.703219 99.133458 27.703219 100.58973 C 27.703219 101.23319 27.906602 101.7752 28.313 102.21547 C 28.753267 102.62187 29.295276 102.82473 29.938741 102.82473 C 31.395005 102.82473 32.123104 102.07985 32.123104 100.58973 C 32.123104 99.980122 31.902945 99.472186 31.462679 99.065788 C 31.056279 98.625522 30.548339 98.405363 29.938741 98.405363 z " />
    <path
       id="path261"
       style="font-style:normal;font-variant:normal;font-weight:normal;font-stretch:normal;font-size:50.8px;font-family:Bazaronite;-inkscape-font-specification:Bazaronite;fill:#ffff00;stroke:#000000;stroke-width:0.141023"
       d="M 170.40045 93.32557 C 168.91032 93.32557 168.16545 94.053669 168.16545 95.509932 C 168.16545 96.153398 168.36831 96.694891 168.77471 97.135156 C 169.21498 97.541556 169.75699 97.744938 170.40045 97.744938 C 171.85672 97.744938 172.58481 97.000063 172.58481 95.509932 C 172.58481 94.900334 172.36466 94.392394 171.92439 93.985994 C 171.51799 93.545729 171.01005 93.32557 170.40045 93.32557 z " />
    <path
       id="path345"
       style="font-style:normal;font-variant:normal;font-weight:normal;font-stretch:normal;font-size:50.8px;font-family:Bazaronite;-inkscape-font-specification:Bazaronite;fill:#ff0000;stroke:#000000;stroke-width:0.141023"
       d="M 165.32066 93.32557 C 163.83053 93.32557 163.08514 94.053669 163.08514 95.509932 C 163.08514 96.153398 163.28852 96.694891 163.69492 97.135156 C 164.13518 97.541556 164.67719 97.744938 165.32066 97.744938 C 166.77692 97.744938 167.50502 97.000063 167.50502 95.509932 C 167.50502 94.900334 167.28486 94.392394 166.8446 93.985994 C 166.4382 93.545729 165.93026 93.32557 165.32066 93.32557 z " />
    <path
       id="path260"
       style="font-style:normal;font-variant:normal;font-weight:normal;font-stretch:normal;font-size:50.8px;font-family:Bazaronite;-inkscape-font-specification:Bazaronite;fill:#ff0000;stroke:#000000;stroke-width:0.141023"
       d="M 122.80077 93.32557 C 121.31064 93.32557 120.56577 94.053669 120.56577 95.509932 C 120.56577 96.153398 120.76915 96.694891 121.17555 97.135156 C 121.61582 97.541556 122.15731 97.744938 122.80077 97.744938 C 124.25704 97.744938 124.98514 97.000063 124.98514 95.509932 C 124.98514 94.900334 124.76498 94.392394 124.32471 93.985994 C 123.91831 93.545729 123.41037 93.32557 122.80077 93.32557 z " />
    <path
       id="path332"
       style="font-style:normal;font-variant:normal;font-weight:normal;font-stretch:normal;font-size:50.8px;font-family:Bazaronite;-inkscape-font-specification:Bazaronite;fill:#ffff00;stroke:#000000;stroke-width:0.141023"
       d="M 117.72098 93.32557 C 116.23085 93.32557 115.48597 94.053669 115.48597 95.509932 C 115.48597 96.153398 115.68884 96.694891 116.09524 97.135156 C 116.53551 97.541556 117.07751 97.744938 117.72098 97.744938 C 119.17725 97.744938 119.90534 97.000063 119.90534 95.509932 C 119.90534 94.900334 119.68518 94.392394 119.24492 93.985994 C 118.83852 93.545729 118.33058 93.32557 117.72098 93.32557 z " />
    <path
       id="path259"
       style="font-style:normal;font-variant:normal;font-weight:normal;font-stretch:normal;font-size:50.8px;font-family:Bazaronite;-inkscape-font-specification:Bazaronite;fill:#ff0000;stroke:#000000;stroke-width:0.141023"
       d="M 94.149809 93.32557 C 92.659678 93.32557 91.914286 94.053669 91.914286 95.509932 C 91.914286 96.153398 92.11767 96.694891 92.524068 97.135156 C 92.964334 97.541556 93.506343 97.744938 94.149809 97.744938 C 95.606072 97.744938 96.334172 97.000063 96.334172 95.509932 C 96.334172 94.900334 96.114012 94.392394 95.673747 93.985994 C 95.267347 93.545729 94.759407 93.32557 94.149809 93.32557 z " />
    <path
       id="path317"
       style="font-style:normal;font-variant:normal;font-weight:normal;font-stretch:normal;font-size:50.8px;font-family:Bazaronite;-inkscape-font-specification:Bazaronite;fill:#ffff00;stroke:#000000;stroke-width:0.141023"
       d="M 89.069499 93.32557 C 87.579368 93.32557 86.834493 94.053669 86.834493 95.509932 C 86.834493 96.153398 87.037875 96.694891 87.444275 97.135156 C 87.88454 97.541556 88.426033 97.744938 89.069499 97.744938 C 90.525762 97.744938 91.254378 97.000063 91.254378 95.509932 C 91.254378 94.900334 91.03422 94.392394 90.593953 93.985994 C 90.187555 93.545729 89.679097 93.32557 89.069499 93.32557 z " />
    <path
       id="path258"
       style="font-style:normal;font-variant:normal;font-weight:normal;font-stretch:normal;font-size:50.8px;font-family:Bazaronite;-inkscape-font-specification:Bazaronite;fill:#ff0000;stroke:#000000;stroke-width:0.141023"
       d="M 73.829602 93.32557 C 72.339472 93.32557 71.594596 94.053669 71.594596 95.509932 C 71.594596 96.153398 71.79798 96.694891 72.204378 97.135156 C 72.644644 97.541556 73.186137 97.744938 73.829602 97.744938 C 75.285866 97.744938 76.013965 97.000063 76.013965 95.509932 C 76.013965 94.900334 75.793806 94.392394 75.35354 93.985994 C 74.94714 93.545729 74.4392 93.32557 73.829602 93.32557 z " />
    <path
       id="path316"
       style="font-style:normal;font-variant:normal;font-weight:normal;font-stretch:normal;font-size:50.8px;font-family:Bazaronite;-inkscape-font-specification:Bazaronite;fill:#ff0000;stroke:#000000;stroke-width:0.141023"
       d="M 68.749809 93.32557 C 67.259678 93.32557 66.514286 94.053669 66.514286 95.509932 C 66.514286 96.153398 66.71767 96.694891 67.124068 97.135156 C 67.564334 97.541556 68.106343 97.744938 68.749809 97.744938 C 70.206072 97.744938 70.934172 97.000063 70.934172 95.509932 C 70.934172 94.900334 70.714012 94.392394 70.273747 93.985994 C 69.867347 93.545729 69.359407 93.32557 68.749809 93.32557 z " />
    <path
       id="path257"
       style="font-style:normal;font-variant:normal;font-weight:normal;font-stretch:normal;font-size:50.8px;font-family:Bazaronite;-inkscape-font-specification:Bazaronite;fill:#ffff00;stroke:#000000;stroke-width:0.141023"
       d="M 55.338741 93.32557 C 53.848611 93.32557 53.103219 94.053669 53.103219 95.509932 C 53.103219 96.153398 53.306602 96.694891 53.713 97.135156 C 54.153267 97.541556 54.695276 97.744938 55.338741 97.744938 C 56.795005 97.744938 57.523104 97.000063 57.523104 95.509932 C 57.523104 94.900334 57.302945 94.392394 56.862679 93.985994 C 56.456279 93.545729 55.948339 93.32557 55.338741 93.32557 z " />
    <path
       id="path297"
       style="font-style:normal;font-variant:normal;font-weight:normal;font-stretch:normal;font-size:50.8px;font-family:Bazaronite;-inkscape-font-specification:Bazaronite;fill:#ffff00;stroke:#000000;stroke-width:0.141023"
       d="M 50.258431 93.32557 C 48.7683 93.32557 48.023425 94.053669 48.023425 95.509932 C 48.023425 96.153398 48.226292 96.694891 48.63269 97.135156 C 49.072957 97.541556 49.614966 97.744938 50.258431 97.744938 C 51.714695 97.744938 52.442794 97.000063 52.442794 95.509932 C 52.442794 94.900334 52.222635 94.392394 51.782369 93.985994 C 51.375969 93.545729 50.868029 93.32557 50.258431 93.32557 z " />
    <path
       id="path256"
       style="font-style:normal;font-variant:normal;font-weight:normal;font-stretch:normal;font-size:50.8px;font-family:Bazaronite;-inkscape-font-specification:Bazaronite;fill:#ff0000;stroke:#000000;stroke-width:0.141023"
       d="M 35.018534 93.32557 C 33.528405 93.32557 32.783529 94.053669 32.783529 95.509932 C 32.783529 96.153398 32.986394 96.694891 33.392794 97.135156 C 33.833059 97.541556 34.375069 97.744938 35.018534 97.744938 C 36.474799 97.744938 37.202897 97.000063 37.202897 95.509932 C 37.202897 94.900334 36.982739 94.392394 36.542472 93.985994 C 36.136074 93.545729 35.628134 93.32557 35.018534 93.32557 z " />
    <path
       id="path285"
       style="font-style:normal;font-variant:normal;font-weight:normal;font-stretch:normal;font-size:50.8px;font-family:Bazaronite;-inkscape-font-specification:Bazaronite;fill:#ffff00;stroke:#000000;stroke-width:0.141023"
       d="M 29.938741 93.32557 C 28.448611 93.32557 27.703219 94.053669 27.703219 95.509932 C 27.703219 96.153398 27.906602 96.694891 28.313 97.135156 C 28.753267 97.541556 29.295276 97.744938 29.938741 97.744938 C 31.395005 97.744938 32.123104 97.000063 32.123104 95.509932 C 32.123104 94.900334 31.902945 94.392394 31.462679 93.985994 C 31.056279 93.545729 30.548339 93.32557 29.938741 93.32557 z " />
    <path
       id="path255"
       style="font-style:normal;font-variant:normal;font-weight:normal;font-stretch:normal;font-size:50.8px;font-family:Bazaronite;-inkscape-font-specification:Bazaronite;fill:#ff0000;stroke:#000000;stroke-width:0.141023"
       d="M 170.40045 88.24526 C 168.91032 88.24526 168.16545 88.973357 168.16545 90.429622 C 168.16545 91.073088 168.36831 91.615097 168.77471 92.055363 C 169.21498 92.461763 169.75699 92.665145 170.40045 92.665145 C 171.85672 92.665145 172.58481 91.919754 172.58481 90.429622 C 172.58481 89.820023 172.36466 89.312084 171.92439 88.905684 C 171.51799 88.465418 171.01005 88.24526 170.40045 88.24526 z " />
    <path
       id="path254"
       style="font-style:normal;font-variant:normal;font-weight:normal;font-stretch:normal;font-size:50.8px;font-family:Bazaronite;-inkscape-font-specification:Bazaronite;fill:#ffff00;stroke:#000000;stroke-width:0.141023"
       d="M 165.32066 88.24526 C 163.83053 88.24526 163.08514 88.973359 163.08514 90.429622 C 163.08514 91.073088 163.28852 91.615097 163.69492 92.055363 C 164.13518 92.461763 164.67719 92.665145 165.32066 92.665145 C 166.77692 92.665145 167.50502 91.919753 167.50502 90.429622 C 167.50502 89.820024 167.28486 89.312084 166.8446 88.905684 C 166.4382 88.465419 165.93026 88.24526 165.32066 88.24526 z " />
    <path
       id="path344"
       style="font-style:normal;font-variant:normal;font-weight:normal;font-stretch:normal;font-size:50.8px;font-family:Bazaronite;-inkscape-font-specification:Bazaronite;fill:#ff0000;stroke:#000000;stroke-width:0.141023"
       d="M 160.24035 88.24526 C 158.75022 88.24526 158.00534 88.973359 158.00534 90.429622 C 158.00534 91.073088 158.20872 91.615097 158.61512 92.055363 C 159.05539 92.461763 159.59688 92.665145 160.24035 92.665145 C 161.69661 92.665145 162.42471 91.919753 162.42471 90.429622 C 162.42471 89.820024 162.20455 89.312084 161.76429 88.905684 C 161.35789 88.465419 160.84995 88.24526 160.24035 88.24526 z " />
    <path
       id="path253"
       style="font-style:normal;font-variant:normal;font-weight:normal;font-stretch:normal;font-size:50.8px;font-family:Bazaronite;-inkscape-font-specification:Bazaronite;fill:#ffff00;stroke:#000000;stroke-width:0.141023"
       d="M 155.16056 88.24526 C 153.67042 88.24526 152.92555 88.973359 152.92555 90.429622 C 152.92555 91.073088 153.12841 91.615097 153.53481 92.055363 C 153.97508 92.461763 154.51709 92.665145 155.16056 92.665145 C 156.61681 92.665145 157.34492 91.919753 157.34492 90.429622 C 157.34492 89.820024 157.12476 89.312084 156.68449 88.905684 C 156.27809 88.465419 155.77014 88.24526 155.16056 88.24526 z " />
    <path
       id="path343"
       style="font-style:normal;font-variant:normal;font-weight:normal;font-stretch:normal;font-size:50.8px;font-family:Bazaronite;-inkscape-font-specification:Bazaronite;fill:#ff0000;stroke:#000000;stroke-width:0.141023"
       d="M 150.08024 88.24526 C 148.59012 88.24526 147.84524 88.973359 147.84524 90.429622 C 147.84524 91.073088 148.04862 91.615097 148.45502 92.055363 C 148.89529 92.461763 149.43679 92.665145 150.08024 92.665145 C 151.53651 92.665145 152.26512 91.919753 152.26512 90.429622 C 152.26512 89.820024 152.04497 89.312084 151.6047 88.905684 C 151.1983 88.465419 150.68984 88.24526 150.08024 88.24526 z " />
    <path
       id="path252"
       style="font-style:normal;font-variant:normal;font-weight:normal;font-stretch:normal;font-size:50.8px;font-family:Bazaronite;-inkscape-font-specification:Bazaronite;fill:#ff0000;stroke:#000000;stroke-width:0.141023"
       d="M 122.80077 88.24526 C 121.31064 88.24526 120.56577 88.973359 120.56577 90.429622 C 120.56577 91.073088 120.76915 91.615097 121.17555 92.055363 C 121.61582 92.461763 122.15731 92.665145 122.80077 92.665145 C 124.25704 92.665145 124.98514 91.919753 124.98514 90.429622 C 124.98514 89.820024 124.76498 89.312084 124.32471 88.905684 C 123.91831 88.465419 123.41037 88.24526 122.80077 88.24526 z " />
    <path
       id="path331"
       style="font-style:normal;font-variant:normal;font-weight:normal;font-stretch:normal;font-size:50.8px;font-family:Bazaronite;-inkscape-font-specification:Bazaronite;fill:#ffff00;stroke:#000000;stroke-width:0.141023"
       d="M 117.72098 88.24526 C 116.23085 88.24526 115.48597 88.973359 115.48597 90.429622 C 115.48597 91.073088 115.68884 91.615097 116.09524 92.055363 C 116.53551 92.461763 117.07751 92.665145 117.72098 92.665145 C 119.17725 92.665145 119.90534 91.919753 119.90534 90.429622 C 119.90534 89.820024 119.68518 89.312084 119.24492 88.905684 C 118.83852 88.465419 118.33058 88.24526 117.72098 88.24526 z " />
    <path
       id="path251"
       style="font-style:normal;font-variant:normal;font-weight:normal;font-stretch:normal;font-size:50.8px;font-family:Bazaronite;-inkscape-font-specification:Bazaronite;fill:#ffff00;stroke:#000000;stroke-width:0.141023"
       d="M 94.149809 88.24526 C 92.659678 88.24526 91.914286 88.973359 91.914286 90.429622 C 91.914286 91.073088 92.11767 91.615097 92.524068 92.055363 C 92.964334 92.461763 93.506343 92.665145 94.149809 92.665145 C 95.606072 92.665145 96.334172 91.919753 96.334172 90.429622 C 96.334172 89.820024 96.114012 89.312084 95.673747 88.905684 C 95.267347 88.465419 94.759407 88.24526 94.149809 88.24526 z " />
    <path
       id="path315"
       style="font-style:normal;font-variant:normal;font-weight:normal;font-stretch:normal;font-size:50.8px;font-family:Bazaronite;-inkscape-font-specification:Bazaronite;fill:#ff0000;stroke:#000000;stroke-width:0.141023"
       d="M 89.069499 88.24526 C 87.579368 88.24526 86.834493 88.973359 86.834493 90.429622 C 86.834493 91.073088 87.037875 91.615097 87.444275 92.055363 C 87.88454 92.461763 88.426033 92.665145 89.069499 92.665145 C 90.525762 92.665145 91.254378 91.919753 91.254378 90.429622 C 91.254378 89.820024 91.03422 89.312084 90.593953 88.905684 C 90.187555 88.465419 89.679097 88.24526 89.069499 88.24526 z " />
    <path
       id="path250"
       style="font-style:normal;font-variant:normal;font-weight:normal;font-stretch:normal;font-size:50.8px;font-family:Bazaronite;-inkscape-font-specification:Bazaronite;fill:#ff0000;stroke:#000000;stroke-width:0.141023"
       d="M 73.829602 88.24526 C 72.339472 88.24526 71.594596 88.973359 71.594596 90.429622 C 71.594596 91.073088 71.79798 91.615097 72.204378 92.055363 C 72.644644 92.461763 73.186137 92.665145 73.829602 92.665145 C 75.285866 92.665145 76.013965 91.919753 76.013965 90.429622 C 76.013965 89.820024 75.793806 89.312084 75.35354 88.905684 C 74.94714 88.465419 74.4392 88.24526 73.829602 88.24526 z " />
    <path
       id="path314"
       style="font-style:normal;font-variant:normal;font-weight:normal;font-stretch:normal;font-size:50.8px;font-family:Bazaronite;-inkscape-font-specification:Bazaronite;fill:#ffff00;stroke:#000000;stroke-width:0.141023"
       d="M 68.749809 88.24526 C 67.259678 88.24526 66.514286 88.973359 66.514286 90.429622 C 66.514286 91.073088 66.71767 91.615097 67.124068 92.055363 C 67.564334 92.461763 68.106343 92.665145 68.749809 92.665145 C 70.206072 92.665145 70.934172 91.919753 70.934172 90.429622 C 70.934172 89.820024 70.714012 89.312084 70.273747 88.905684 C 69.867347 88.465419 69.359407 88.24526 68.749809 88.24526 z " />
    <path
       id="path249"
       style="font-style:normal;font-variant:normal;font-weight:normal;font-stretch:normal;font-size:50.8px;font-family:Bazaronite;-inkscape-font-specification:Bazaronite;fill:#ffff00;stroke:#000000;stroke-width:0.141023"
       d="M 55.338741 88.24526 C 53.848611 88.24526 53.103219 88.973359 53.103219 90.429622 C 53.103219 91.073088 53.306602 91.615097 53.713 92.055363 C 54.153267 92.461763 54.695276 92.665145 55.338741 92.665145 C 56.795005 92.665145 57.523104 91.919753 57.523104 90.429622 C 57.523104 89.820024 57.302945 89.312084 56.862679 88.905684 C 56.456279 88.465419 55.948339 88.24526 55.338741 88.24526 z " />
    <path
       id="path296"
       style="font-style:normal;font-variant:normal;font-weight:normal;font-stretch:normal;font-size:50.8px;font-family:Bazaronite;-inkscape-font-specification:Bazaronite;fill:#ff0000;stroke:#000000;stroke-width:0.141023"
       d="M 50.258431 88.24526 C 48.7683 88.24526 48.023425 88.973359 48.023425 90.429622 C 48.023425 91.073088 48.226292 91.615097 48.63269 92.055363 C 49.072957 92.461763 49.614966 92.665145 50.258431 92.665145 C 51.714695 92.665145 52.442794 91.919753 52.442794 90.429622 C 52.442794 89.820024 52.222635 89.312084 51.782369 88.905684 C 51.375969 88.465419 50.868029 88.24526 50.258431 88.24526 z " />
    <path
       id="path248"
       style="font-style:normal;font-variant:normal;font-weight:normal;font-stretch:normal;font-size:50.8px;font-family:Bazaronite;-inkscape-font-specification:Bazaronite;fill:#ffff00;stroke:#000000;stroke-width:0.141023"
       d="M 35.018534 88.24526 C 33.528405 88.24526 32.783529 88.973359 32.783529 90.429622 C 32.783529 91.073088 32.986394 91.615097 33.392794 92.055363 C 33.833059 92.461763 34.375069 92.665145 35.018534 92.665145 C 36.474799 92.665145 37.202897 91.919753 37.202897 90.429622 C 37.202897 89.820024 36.982739 89.312084 36.542472 88.905684 C 36.136074 88.465419 35.628134 88.24526 35.018534 88.24526 z " />
    <path
       id="path284"
       style="font-style:normal;font-variant:normal;font-weight:normal;font-stretch:normal;font-size:50.8px;font-family:Bazaronite;-inkscape-font-specification:Bazaronite;fill:#ff0000;stroke:#000000;stroke-width:0.141023"
       d="M 29.938741 88.24526 C 28.448611 88.24526 27.703219 88.973359 27.703219 90.429622 C 27.703219 91.073088 27.906602 91.615097 28.313 92.055363 C 28.753267 92.461763 29.295276 92.665145 29.938741 92.665145 C 31.395005 92.665145 32.123104 91.919753 32.123104 90.429622 C 32.123104 89.820024 31.902945 89.312084 31.462679 88.905684 C 31.056279 88.465419 30.548339 88.24526 29.938741 88.24526 z " />
    <path
       id="path247"
       style="font-style:normal;font-variant:normal;font-weight:normal;font-stretch:normal;font-size:50.8px;font-family:Bazaronite;-inkscape-font-specification:Bazaronite;fill:#ff0000;stroke:#000000;stroke-width:0.141023"
       d="M 165.32066 83.165466 C 163.83053 83.165466 163.08514 83.893564 163.08514 85.349829 C 163.08514 85.993295 163.28852 86.535303 163.69492 86.97557 C 164.13518 87.381969 164.67719 87.584835 165.32066 87.584835 C 166.77692 87.584835 167.50502 86.839961 167.50502 85.349829 C 167.50502 84.74023 167.28486 84.232291 166.8446 83.825891 C 166.4382 83.385625 165.93026 83.165466 165.32066 83.165466 z " />
    <path
       id="path246"
       style="font-style:normal;font-variant:normal;font-weight:normal;font-stretch:normal;font-size:50.8px;font-family:Bazaronite;-inkscape-font-specification:Bazaronite;fill:#ffff00;stroke:#000000;stroke-width:0.141023"
       d="M 160.24035 83.165466 C 158.75022 83.165466 158.00534 83.893566 158.00534 85.349829 C 158.00534 85.993294 158.20872 86.535303 158.61512 86.97557 C 159.05539 87.381968 159.59688 87.584835 160.24035 87.584835 C 161.69661 87.584835 162.42471 86.83996 162.42471 85.349829 C 162.42471 84.740231 162.20455 84.232291 161.76429 83.825891 C 161.35789 83.385626 160.84995 83.165466 160.24035 83.165466 z " />
    <path
       id="path342"
       style="font-style:normal;font-variant:normal;font-weight:normal;font-stretch:normal;font-size:50.8px;font-family:Bazaronite;-inkscape-font-specification:Bazaronite;fill:#ff0000;stroke:#000000;stroke-width:0.141023"
       d="M 155.16056 83.165466 C 153.67042 83.165466 152.92555 83.893566 152.92555 85.349829 C 152.92555 85.993294 153.12841 86.535303 153.53481 86.97557 C 153.97508 87.381968 154.51709 87.584835 155.16056 87.584835 C 156.61681 87.584835 157.34492 86.83996 157.34492 85.349829 C 157.34492 84.740231 157.12476 84.232291 156.68449 83.825891 C 156.27809 83.385626 155.77014 83.165466 155.16056 83.165466 z " />
    <path
       id="path245"
       style="font-style:normal;font-variant:normal;font-weight:normal;font-stretch:normal;font-size:50.8px;font-family:Bazaronite;-inkscape-font-specification:Bazaronite;fill:#ffff00;stroke:#000000;stroke-width:0.141023"
       d="M 150.08024 83.165466 C 148.59012 83.165466 147.84524 83.893566 147.84524 85.349829 C 147.84524 85.993294 148.04862 86.535303 148.45502 86.97557 C 148.89529 87.381968 149.43679 87.584835 150.08024 87.584835 C 151.53651 87.584835 152.26512 86.83996 152.26512 85.349829 C 152.26512 84.740231 152.04497 84.232291 151.6047 83.825891 C 151.1983 83.385626 150.68984 83.165466 150.08024 83.165466 z " />
    <path
       id="path341"
       style="font-style:normal;font-variant:normal;font-weight:normal;font-stretch:normal;font-size:50.8px;font-family:Bazaronite;-inkscape-font-specification:Bazaronite;fill:#ff0000;stroke:#000000;stroke-width:0.141023"
       d="M 145.00045 83.165466 C 143.51032 83.165466 142.76545 83.893566 142.76545 85.349829 C 142.76545 85.993294 142.96831 86.535303 143.37471 86.97557 C 143.81498 87.381968 144.35699 87.584835 145.00045 87.584835 C 146.45672 87.584835 147.18481 86.83996 147.18481 85.349829 C 147.18481 84.740231 146.96466 84.232291 146.52439 83.825891 C 146.11799 83.385626 145.61005 83.165466 145.00045 83.165466 z " />
    <path
       id="path244"
       style="font-style:normal;font-variant:normal;font-weight:normal;font-stretch:normal;font-size:50.8px;font-family:Bazaronite;-inkscape-font-specification:Bazaronite;fill:#ffff00;stroke:#000000;stroke-width:0.141023"
       d="M 122.80077 83.165466 C 121.31064 83.165466 120.56577 83.893566 120.56577 85.349829 C 120.56577 85.993294 120.76915 86.535303 121.17555 86.97557 C 121.61582 87.381968 122.15731 87.584835 122.80077 87.584835 C 124.25704 87.584835 124.98514 86.83996 124.98514 85.349829 C 124.98514 84.740231 124.76498 84.232291 124.32471 83.825891 C 123.91831 83.385626 123.41037 83.165466 122.80077 83.165466 z " />
    <path
       id="path330"
       style="font-style:normal;font-variant:normal;font-weight:normal;font-stretch:normal;font-size:50.8px;font-family:Bazaronite;-inkscape-font-specification:Bazaronite;fill:#ff0000;stroke:#000000;stroke-width:0.141023"
       d="M 117.72098 83.165466 C 116.23085 83.165466 115.48597 83.893566 115.48597 85.349829 C 115.48597 85.993294 115.68884 86.535303 116.09524 86.97557 C 116.53551 87.381968 117.07751 87.584835 117.72098 87.584835 C 119.17725 87.584835 119.90534 86.83996 119.90534 85.349829 C 119.90534 84.740231 119.68518 84.232291 119.24492 83.825891 C 118.83852 83.385626 118.33058 83.165466 117.72098 83.165466 z " />
    <path
       id="path243"
       style="font-style:normal;font-variant:normal;font-weight:normal;font-stretch:normal;font-size:50.8px;font-family:Bazaronite;-inkscape-font-specification:Bazaronite;fill:#ffff00;stroke:#000000;stroke-width:0.141023"
       d="M 94.149809 83.165466 C 92.659678 83.165466 91.914286 83.893566 91.914286 85.349829 C 91.914286 85.993294 92.11767 86.535303 92.524068 86.97557 C 92.964334 87.381968 93.506343 87.584835 94.149809 87.584835 C 95.606072 87.584835 96.334172 86.83996 96.334172 85.349829 C 96.334172 84.740231 96.114012 84.232291 95.673747 83.825891 C 95.267347 83.385626 94.759407 83.165466 94.149809 83.165466 z " />
    <path
       id="path313"
       style="font-style:normal;font-variant:normal;font-weight:normal;font-stretch:normal;font-size:50.8px;font-family:Bazaronite;-inkscape-font-specification:Bazaronite;fill:#ff0000;stroke:#000000;stroke-width:0.141023"
       d="M 89.069499 83.165466 C 87.579368 83.165466 86.834493 83.893566 86.834493 85.349829 C 86.834493 85.993294 87.037875 86.535303 87.444275 86.97557 C 87.88454 87.381968 88.426033 87.584835 89.069499 87.584835 C 90.525762 87.584835 91.254378 86.83996 91.254378 85.349829 C 91.254378 84.740231 91.03422 84.232291 90.593953 83.825891 C 90.187555 83.385626 89.679097 83.165466 89.069499 83.165466 z " />
    <path
       id="path242"
       style="font-style:normal;font-variant:normal;font-weight:normal;font-stretch:normal;font-size:50.8px;font-family:Bazaronite;-inkscape-font-specification:Bazaronite;fill:#ffff00;stroke:#000000;stroke-width:0.141023"
       d="M 73.829602 83.165466 C 72.339472 83.165466 71.594596 83.893566 71.594596 85.349829 C 71.594596 85.993294 71.79798 86.535303 72.204378 86.97557 C 72.644644 87.381968 73.186137 87.584835 73.829602 87.584835 C 75.285866 87.584835 76.013965 86.83996 76.013965 85.349829 C 76.013965 84.740231 75.793806 84.232291 75.35354 83.825891 C 74.94714 83.385626 74.4392 83.165466 73.829602 83.165466 z " />
    <path
       id="path312"
       style="font-style:normal;font-variant:normal;font-weight:normal;font-stretch:normal;font-size:50.8px;font-family:Bazaronite;-inkscape-font-specification:Bazaronite;fill:#ffff00;stroke:#000000;stroke-width:0.141023"
       d="M 68.749809 83.165466 C 67.259678 83.165466 66.514286 83.893566 66.514286 85.349829 C 66.514286 85.993294 66.71767 86.535303 67.124068 86.97557 C 67.564334 87.381968 68.106343 87.584835 68.749809 87.584835 C 70.206072 87.584835 70.934172 86.83996 70.934172 85.349829 C 70.934172 84.740231 70.714012 84.232291 70.273747 83.825891 C 69.867347 83.385626 69.359407 83.165466 68.749809 83.165466 z " />
    <path
       id="path241"
       style="font-style:normal;font-variant:normal;font-weight:normal;font-stretch:normal;font-size:50.8px;font-family:Bazaronite;-inkscape-font-specification:Bazaronite;fill:#ff0000;stroke:#000000;stroke-width:0.141023"
       d="M 55.338741 83.165466 C 53.848611 83.165466 53.103219 83.893566 53.103219 85.349829 C 53.103219 85.993294 53.306602 86.535303 53.713 86.97557 C 54.153267 87.381968 54.695276 87.584835 55.338741 87.584835 C 56.795005 87.584835 57.523104 86.83996 57.523104 85.349829 C 57.523104 84.740231 57.302945 84.232291 56.862679 83.825891 C 56.456279 83.385626 55.948339 83.165466 55.338741 83.165466 z " />
    <path
       id="path295"
       style="font-style:normal;font-variant:normal;font-weight:normal;font-stretch:normal;font-size:50.8px;font-family:Bazaronite;-inkscape-font-specification:Bazaronite;fill:#ffff00;stroke:#000000;stroke-width:0.141023"
       d="M 50.258431 83.165466 C 48.7683 83.165466 48.023425 83.893566 48.023425 85.349829 C 48.023425 85.993294 48.226292 86.535303 48.63269 86.97557 C 49.072957 87.381968 49.614966 87.584835 50.258431 87.584835 C 51.714695 87.584835 52.442794 86.83996 52.442794 85.349829 C 52.442794 84.740231 52.222635 84.232291 51.782369 83.825891 C 51.375969 83.385626 50.868029 83.165466 50.258431 83.165466 z " />
    <path
       id="path240"
       style="font-style:normal;font-variant:normal;font-weight:normal;font-stretch:normal;font-size:50.8px;font-family:Bazaronite;-inkscape-font-specification:Bazaronite;fill:#ff0000;stroke:#000000;stroke-width:0.141023"
       d="M 35.018534 83.165466 C 33.528405 83.165466 32.783529 83.893566 32.783529 85.349829 C 32.783529 85.993294 32.986394 86.535303 33.392794 86.97557 C 33.833059 87.381968 34.375069 87.584835 35.018534 87.584835 C 36.474799 87.584835 37.202897 86.83996 37.202897 85.349829 C 37.202897 84.740231 36.982739 84.232291 36.542472 83.825891 C 36.136074 83.385626 35.628134 83.165466 35.018534 83.165466 z " />
    <path
       id="path283"
       style="font-style:normal;font-variant:normal;font-weight:normal;font-stretch:normal;font-size:50.8px;font-family:Bazaronite;-inkscape-font-specification:Bazaronite;fill:#ffff00;stroke:#000000;stroke-width:0.141023"
       d="M 29.938741 83.165466 C 28.448611 83.165466 27.703219 83.893566 27.703219 85.349829 C 27.703219 85.993294 27.906602 86.535303 28.313 86.97557 C 28.753267 87.381968 29.295276 87.584835 29.938741 87.584835 C 31.395005 87.584835 32.123104 86.83996 32.123104 85.349829 C 32.123104 84.740231 31.902945 84.232291 31.462679 83.825891 C 31.056279 83.385626 30.548339 83.165466 29.938741 83.165466 z " />
    <path
       id="path239"
       style="font-style:normal;font-variant:normal;font-weight:normal;font-stretch:normal;font-size:50.8px;font-family:Bazaronite;-inkscape-font-specification:Bazaronite;fill:#ffff00;stroke:#000000;stroke-width:0.141023"
       d="M 150.08024 78.085156 C 148.59012 78.085156 147.84524 78.813255 147.84524 80.269519 C 147.84524 80.912984 148.04862 81.454993 148.45502 81.89526 C 148.89529 82.301658 149.43679 82.505042 150.08024 82.505042 C 151.53651 82.505042 152.26512 81.75965 152.26512 80.269519 C 152.26512 79.659921 152.04497 79.151981 151.6047 78.745581 C 151.1983 78.305315 150.68984 78.085156 150.08024 78.085156 z " />
    <path
       id="path340"
       style="font-style:normal;font-variant:normal;font-weight:normal;font-stretch:normal;font-size:50.8px;font-family:Bazaronite;-inkscape-font-specification:Bazaronite;fill:#ffff00;stroke:#000000;stroke-width:0.141023"
       d="M 145.00045 78.085156 C 143.51032 78.085156 142.76545 78.813255 142.76545 80.269519 C 142.76545 80.912984 142.96831 81.454993 143.37471 81.89526 C 143.81498 82.301658 144.35699 82.505042 145.00045 82.505042 C 146.45672 82.505042 147.18481 81.75965 147.18481 80.269519 C 147.18481 79.659921 146.96466 79.151981 146.52439 78.745581 C 146.11799 78.305315 145.61005 78.085156 145.00045 78.085156 z " />
    <path
       id="path238"
       style="font-style:normal;font-variant:normal;font-weight:normal;font-stretch:normal;font-size:50.8px;font-family:Bazaronite;-inkscape-font-specification:Bazaronite;fill:#ff0000;stroke:#000000;stroke-width:0.141023"
       d="M 122.80077 78.085156 C 121.31064 78.085156 120.56577 78.813255 120.56577 80.269519 C 120.56577 80.912984 120.76915 81.454993 121.17555 81.89526 C 121.61582 82.301658 122.15731 82.505042 122.80077 82.505042 C 124.25704 82.505042 124.98514 81.75965 124.98514 80.269519 C 124.98514 79.659921 124.76498 79.151981 124.32471 78.745581 C 123.91831 78.305315 123.41037 78.085156 122.80077 78.085156 z " />
    <path
       id="path329"
       style="font-style:normal;font-variant:normal;font-weight:normal;font-stretch:normal;font-size:50.8px;font-family:Bazaronite;-inkscape-font-specification:Bazaronite;fill:#ffff00;stroke:#000000;stroke-width:0.141023"
       d="M 117.72098 78.085156 C 116.23085 78.085156 115.48597 78.813255 115.48597 80.269519 C 115.48597 80.912984 115.68884 81.454993 116.09524 81.89526 C 116.53551 82.301658 117.07751 82.505042 117.72098 82.505042 C 119.17725 82.505042 119.90534 81.75965 119.90534 80.269519 C 119.90534 79.659921 119.68518 79.151981 119.24492 78.745581 C 118.83852 78.305315 118.33058 78.085156 117.72098 78.085156 z " />
    <path
       id="path237"
       style="font-style:normal;font-variant:normal;font-weight:normal;font-stretch:normal;font-size:50.8px;font-family:Bazaronite;-inkscape-font-specification:Bazaronite;fill:#ff0000;stroke:#000000;stroke-width:0.141023"
       d="M 94.149809 78.085156 C 92.659678 78.085156 91.914286 78.813255 91.914286 80.269519 C 91.914286 80.912984 92.11767 81.454993 92.524068 81.89526 C 92.964334 82.301658 93.506343 82.505042 94.149809 82.505042 C 95.606072 82.505042 96.334172 81.75965 96.334172 80.269519 C 96.334172 79.659921 96.114012 79.151981 95.673747 78.745581 C 95.267347 78.305315 94.759407 78.085156 94.149809 78.085156 z " />
    <path
       id="path311"
       style="font-style:normal;font-variant:normal;font-weight:normal;font-stretch:normal;font-size:50.8px;font-family:Bazaronite;-inkscape-font-specification:Bazaronite;fill:#ffff00;stroke:#000000;stroke-width:0.141023"
       d="M 89.069499 78.085156 C 87.579368 78.085156 86.834493 78.813255 86.834493 80.269519 C 86.834493 80.912984 87.037875 81.454993 87.444275 81.89526 C 87.88454 82.301658 88.426033 82.505042 89.069499 82.505042 C 90.525762 82.505042 91.254378 81.75965 91.254378 80.269519 C 91.254378 79.659921 91.03422 79.151981 90.593953 78.745581 C 90.187555 78.305315 89.679097 78.085156 89.069499 78.085156 z " />
    <path
       id="path236"
       style="font-style:normal;font-variant:normal;font-weight:normal;font-stretch:normal;font-size:50.8px;font-family:Bazaronite;-inkscape-font-specification:Bazaronite;fill:#ff0000;stroke:#000000;stroke-width:0.141023"
       d="M 73.829602 78.085156 C 72.339472 78.085156 71.594596 78.813255 71.594596 80.269519 C 71.594596 80.912984 71.79798 81.454993 72.204378 81.89526 C 72.644644 82.301658 73.186137 82.505042 73.829602 82.505042 C 75.285866 82.505042 76.013965 81.75965 76.013965 80.269519 C 76.013965 79.659921 75.793806 79.151981 75.35354 78.745581 C 74.94714 78.305315 74.4392 78.085156 73.829602 78.085156 z " />
    <path
       id="path310"
       style="font-style:normal;font-variant:normal;font-weight:normal;font-stretch:normal;font-size:50.8px;font-family:Bazaronite;-inkscape-font-specification:Bazaronite;fill:#ff0000;stroke:#000000;stroke-width:0.141023"
       d="M 68.749809 78.085156 C 67.259678 78.085156 66.514286 78.813255 66.514286 80.269519 C 66.514286 80.912984 66.71767 81.454993 67.124068 81.89526 C 67.564334 82.301658 68.106343 82.505042 68.749809 82.505042 C 70.206072 82.505042 70.934172 81.75965 70.934172 80.269519 C 70.934172 79.659921 70.714012 79.151981 70.273747 78.745581 C 69.867347 78.305315 69.359407 78.085156 68.749809 78.085156 z " />
    <path
       id="path235"
       style="font-style:normal;font-variant:normal;font-weight:normal;font-stretch:normal;font-size:50.8px;font-family:Bazaronite;-inkscape-font-specification:Bazaronite;fill:#ff0000;stroke:#000000;stroke-width:0.141023"
       d="M 55.338741 78.085156 C 53.848611 78.085156 53.103219 78.813255 53.103219 80.269519 C 53.103219 80.912984 53.306602 81.454993 53.713 81.89526 C 54.153267 82.301658 54.695276 82.505042 55.338741 82.505042 C 56.795005 82.505042 57.523104 81.75965 57.523104 80.269519 C 57.523104 79.659921 57.302945 79.151981 56.862679 78.745581 C 56.456279 78.305315 55.948339 78.085156 55.338741 78.085156 z " />
    <path
       id="path294"
       style="font-style:normal;font-variant:normal;font-weight:normal;font-stretch:normal;font-size:50.8px;font-family:Bazaronite;-inkscape-font-specification:Bazaronite;fill:#ff0000;stroke:#000000;stroke-width:0.141023"
       d="M 50.258431 78.085156 C 48.7683 78.085156 48.023425 78.813255 48.023425 80.269519 C 48.023425 80.912984 48.226292 81.454993 48.63269 81.89526 C 49.072957 82.301658 49.614966 82.505042 50.258431 82.505042 C 51.714695 82.505042 52.442794 81.75965 52.442794 80.269519 C 52.442794 79.659921 52.222635 79.151981 51.782369 78.745581 C 51.375969 78.305315 50.868029 78.085156 50.258431 78.085156 z " />
    <path
       id="path234"
       style="font-style:normal;font-variant:normal;font-weight:normal;font-stretch:normal;font-size:50.8px;font-family:Bazaronite;-inkscape-font-specification:Bazaronite;fill:#ff0000;stroke:#000000;stroke-width:0.141023"
       d="M 35.018534 78.085156 C 33.528405 78.085156 32.783529 78.813255 32.783529 80.269519 C 32.783529 80.912984 32.986394 81.454993 33.392794 81.89526 C 33.833059 82.301658 34.375069 82.505042 35.018534 82.505042 C 36.474799 82.505042 37.202897 81.75965 37.202897 80.269519 C 37.202897 79.659921 36.982739 79.151981 36.542472 78.745581 C 36.136074 78.305315 35.628134 78.085156 35.018534 78.085156 z " />
    <path
       id="path282"
       style="font-style:normal;font-variant:normal;font-weight:normal;font-stretch:normal;font-size:50.8px;font-family:Bazaronite;-inkscape-font-specification:Bazaronite;fill:#ffff00;stroke:#000000;stroke-width:0.141023"
       d="M 29.938741 78.085156 C 28.448611 78.085156 27.703219 78.813255 27.703219 80.269519 C 27.703219 80.912984 27.906602 81.454993 28.313 81.89526 C 28.753267 82.301658 29.295276 82.505042 29.938741 82.505042 C 31.395005 82.505042 32.123104 81.75965 32.123104 80.269519 C 32.123104 79.659921 31.902945 79.151981 31.462679 78.745581 C 31.056279 78.305315 30.548339 78.085156 29.938741 78.085156 z " />
    <path
       id="path233"
       style="font-style:normal;font-variant:normal;font-weight:normal;font-stretch:normal;font-size:50.8px;font-family:Bazaronite;-inkscape-font-specification:Bazaronite;fill:#ffff00;stroke:#000000;stroke-width:0.141023"
       d="M 170.40045 73.005363 C 168.91032 73.005363 168.16545 73.733462 168.16545 75.189726 C 168.16545 75.833191 168.36831 76.375201 168.77471 76.815466 C 169.21498 77.221866 169.75699 77.424731 170.40045 77.424731 C 171.85672 77.424731 172.58481 76.679856 172.58481 75.189726 C 172.58481 74.580126 172.36466 74.072186 171.92439 73.665788 C 171.51799 73.225522 171.01005 73.005363 170.40045 73.005363 z " />
    <path
       id="path339"
       style="font-style:normal;font-variant:normal;font-weight:normal;font-stretch:normal;font-size:50.8px;font-family:Bazaronite;-inkscape-font-specification:Bazaronite;fill:#ff0000;stroke:#000000;stroke-width:0.141023"
       d="M 165.32066 73.005363 C 163.83053 73.005363 163.08514 73.733462 163.08514 75.189726 C 163.08514 75.833191 163.28852 76.375201 163.69492 76.815466 C 164.13518 77.221866 164.67719 77.424731 165.32066 77.424731 C 166.77692 77.424731 167.50502 76.679856 167.50502 75.189726 C 167.50502 74.580126 167.28486 74.072186 166.8446 73.665788 C 166.4382 73.225522 165.93026 73.005363 165.32066 73.005363 z " />
    <path
       id="path232"
       style="font-style:normal;font-variant:normal;font-weight:normal;font-stretch:normal;font-size:50.8px;font-family:Bazaronite;-inkscape-font-specification:Bazaronite;fill:#ff0000;stroke:#000000;stroke-width:0.141023"
       d="M 160.24035 73.005363 C 158.75022 73.005363 158.00534 73.733462 158.00534 75.189726 C 158.00534 75.833191 158.20872 76.375201 158.61512 76.815466 C 159.05539 77.221866 159.59688 77.424731 160.24035 77.424731 C 161.69661 77.424731 162.42471 76.679856 162.42471 75.189726 C 162.42471 74.580126 162.20455 74.072186 161.76429 73.665788 C 161.35789 73.225522 160.84995 73.005363 160.24035 73.005363 z " />
    <path
       id="path338"
       style="font-style:normal;font-variant:normal;font-weight:normal;font-stretch:normal;font-size:50.8px;font-family:Bazaronite;-inkscape-font-specification:Bazaronite;fill:#ffff00;stroke:#000000;stroke-width:0.141023"
       d="M 155.16056 73.005363 C 153.67042 73.005363 152.92555 73.733462 152.92555 75.189726 C 152.92555 75.833191 153.12841 76.375201 153.53481 76.815466 C 153.97508 77.221866 154.51709 77.424731 155.16056 77.424731 C 156.61681 77.424731 157.34492 76.679856 157.34492 75.189726 C 157.34492 74.580126 157.12476 74.072186 156.68449 73.665788 C 156.27809 73.225522 155.77014 73.005363 155.16056 73.005363 z " />
    <path
       id="path231"
       style="font-style:normal;font-variant:normal;font-weight:normal;font-stretch:normal;font-size:50.8px;font-family:Bazaronite;-inkscape-font-specification:Bazaronite;fill:#ff0000;stroke:#000000;stroke-width:0.141023"
       d="M 150.08024 73.005363 C 148.59012 73.005363 147.84524 73.733462 147.84524 75.189726 C 147.84524 75.833191 148.04862 76.375201 148.45502 76.815466 C 148.89529 77.221866 149.43679 77.424731 150.08024 77.424731 C 151.53651 77.424731 152.26512 76.679856 152.26512 75.189726 C 152.26512 74.580126 152.04497 74.072186 151.6047 73.665788 C 151.1983 73.225522 150.68984 73.005363 150.08024 73.005363 z " />
    <path
       id="path337"
       style="font-style:normal;font-variant:normal;font-weight:normal;font-stretch:normal;font-size:50.8px;font-family:Bazaronite;-inkscape-font-specification:Bazaronite;fill:#ffff00;stroke:#000000;stroke-width:0.141023"
       d="M 145.00045 73.005363 C 143.51032 73.005363 142.76545 73.733462 142.76545 75.189726 C 142.76545 75.833191 142.96831 76.375201 143.37471 76.815466 C 143.81498 77.221866 144.35699 77.424731 145.00045 77.424731 C 146.45672 77.424731 147.18481 76.679856 147.18481 75.189726 C 147.18481 74.580126 146.96466 74.072186 146.52439 73.665788 C 146.11799 73.225522 145.61005 73.005363 145.00045 73.005363 z " />
    <path
       id="path230"
       style="font-style:normal;font-variant:normal;font-weight:normal;font-stretch:normal;font-size:50.8px;font-family:Bazaronite;-inkscape-font-specification:Bazaronite;fill:#ff0000;stroke:#000000;stroke-width:0.141023"
       d="M 132.96088 73.005363 C 131.47074 73.005363 130.72587 73.733462 130.72587 75.189726 C 130.72587 75.833191 130.92874 76.375201 131.33514 76.815466 C 131.7754 77.221866 132.31741 77.424731 132.96088 77.424731 C 134.41714 77.424731 135.14524 76.679856 135.14524 75.189726 C 135.14524 74.580126 134.92508 74.072186 134.48481 73.665788 C 134.07841 73.225522 133.57048 73.005363 132.96088 73.005363 z " />
    <path
       id="path328"
       style="font-style:normal;font-variant:normal;font-weight:normal;font-stretch:normal;font-size:50.8px;font-family:Bazaronite;-inkscape-font-specification:Bazaronite;fill:#ffff00;stroke:#000000;stroke-width:0.141023"
       d="M 127.88108 73.005363 C 126.39095 73.005363 125.64556 73.733462 125.64556 75.189726 C 125.64556 75.833191 125.84894 76.375201 126.25534 76.815466 C 126.69561 77.221866 127.23762 77.424731 127.88108 77.424731 C 129.33735 77.424731 130.06545 76.679856 130.06545 75.189726 C 130.06545 74.580126 129.84529 74.072186 129.40502 73.665788 C 128.99862 73.225522 128.49068 73.005363 127.88108 73.005363 z " />
    <path
       id="path229"
       style="font-style:normal;font-variant:normal;font-weight:normal;font-stretch:normal;font-size:50.8px;font-family:Bazaronite;-inkscape-font-specification:Bazaronite;fill:#ffff00;stroke:#000000;stroke-width:0.141023"
       d="M 122.80077 73.005363 C 121.31064 73.005363 120.56577 73.733462 120.56577 75.189726 C 120.56577 75.833191 120.76915 76.375201 121.17555 76.815466 C 121.61582 77.221866 122.15731 77.424731 122.80077 77.424731 C 124.25704 77.424731 124.98514 76.679856 124.98514 75.189726 C 124.98514 74.580126 124.76498 74.072186 124.32471 73.665788 C 123.91831 73.225522 123.41037 73.005363 122.80077 73.005363 z " />
    <path
       id="path327"
       style="font-style:normal;font-variant:normal;font-weight:normal;font-stretch:normal;font-size:50.8px;font-family:Bazaronite;-inkscape-font-specification:Bazaronite;fill:#ff0000;stroke:#000000;stroke-width:0.141023"
       d="M 117.72098 73.005363 C 116.23085 73.005363 115.48597 73.733462 115.48597 75.189726 C 115.48597 75.833191 115.68884 76.375201 116.09524 76.815466 C 116.53551 77.221866 117.07751 77.424731 117.72098 77.424731 C 119.17725 77.424731 119.90534 76.679856 119.90534 75.189726 C 119.90534 74.580126 119.68518 74.072186 119.24492 73.665788 C 118.83852 73.225522 118.33058 73.005363 117.72098 73.005363 z " />
    <path
       id="path228"
       style="font-style:normal;font-variant:normal;font-weight:normal;font-stretch:normal;font-size:50.8px;font-family:Bazaronite;-inkscape-font-specification:Bazaronite;fill:#ff0000;stroke:#000000;stroke-width:0.141023"
       d="M 112.64067 73.005363 C 111.15054 73.005363 110.40566 73.733462 110.40566 75.189726 C 110.40566 75.833191 110.60905 76.375201 111.01545 76.815466 C 111.45571 77.221866 111.9972 77.424731 112.64067 77.424731 C 114.09693 77.424731 114.82555 76.679856 114.82555 75.189726 C 114.82555 74.580126 114.60539 74.072186 114.16512 73.665788 C 113.75872 73.225522 113.25027 73.005363 112.64067 73.005363 z " />
    <path
       id="path326"
       style="font-style:normal;font-variant:normal;font-weight:normal;font-stretch:normal;font-size:50.8px;font-family:Bazaronite;-inkscape-font-specification:Bazaronite;fill:#ffff00;stroke:#000000;stroke-width:0.141023"
       d="M 107.56088 73.005363 C 106.07074 73.005363 105.32587 73.733462 105.32587 75.189726 C 105.32587 75.833191 105.52874 76.375201 105.93514 76.815466 C 106.3754 77.221866 106.91741 77.424731 107.56088 77.424731 C 109.01714 77.424731 109.74524 76.679856 109.74524 75.189726 C 109.74524 74.580126 109.52508 74.072186 109.08481 73.665788 C 108.67841 73.225522 108.17048 73.005363 107.56088 73.005363 z " />
    <path
       id="path227"
       style="font-style:normal;font-variant:normal;font-weight:normal;font-stretch:normal;font-size:50.8px;font-family:Bazaronite;-inkscape-font-specification:Bazaronite;fill:#ffff00;stroke:#000000;stroke-width:0.141023"
       d="M 94.149809 73.005363 C 92.659678 73.005363 91.914286 73.733462 91.914286 75.189726 C 91.914286 75.833191 92.11767 76.375201 92.524068 76.815466 C 92.964334 77.221866 93.506343 77.424731 94.149809 77.424731 C 95.606072 77.424731 96.334172 76.679856 96.334172 75.189726 C 96.334172 74.580126 96.114012 74.072186 95.673747 73.665788 C 95.267347 73.225522 94.759407 73.005363 94.149809 73.005363 z " />
    <path
       id="path308"
       style="font-style:normal;font-variant:normal;font-weight:normal;font-stretch:normal;font-size:50.8px;font-family:Bazaronite;-inkscape-font-specification:Bazaronite;fill:#ff0000;stroke:#000000;stroke-width:0.141023"
       d="M 89.069499 73.005363 C 87.579368 73.005363 86.834493 73.733462 86.834493 75.189726 C 86.834493 75.833191 87.037875 76.375201 87.444275 76.815466 C 87.88454 77.221866 88.426033 77.424731 89.069499 77.424731 C 90.525762 77.424731 91.254378 76.679856 91.254378 75.189726 C 91.254378 74.580126 91.03422 74.072186 90.593953 73.665788 C 90.187555 73.225522 89.679097 73.005363 89.069499 73.005363 z " />
    <path
       id="path226"
       style="font-style:normal;font-variant:normal;font-weight:normal;font-stretch:normal;font-size:50.8px;font-family:Bazaronite;-inkscape-font-specification:Bazaronite;fill:#ffff00;stroke:#000000;stroke-width:0.141023"
       d="M 83.989705 73.005363 C 82.499576 73.005363 81.7547 73.733462 81.7547 75.189726 C 81.7547 75.833191 81.957565 76.375201 82.363965 76.815466 C 82.80423 77.221866 83.34624 77.424731 83.989705 77.424731 C 85.44597 77.424731 86.174068 76.679856 86.174068 75.189726 C 86.174068 74.580126 85.95391 74.072186 85.513643 73.665788 C 85.107245 73.225522 84.599305 73.005363 83.989705 73.005363 z " />
    <path
       id="path307"
       style="font-style:normal;font-variant:normal;font-weight:normal;font-stretch:normal;font-size:50.8px;font-family:Bazaronite;-inkscape-font-specification:Bazaronite;fill:#ff0000;stroke:#000000;stroke-width:0.141023"
       d="M 78.909912 73.005363 C 77.419782 73.005363 76.67439 73.733462 76.67439 75.189726 C 76.67439 75.833191 76.877772 76.375201 77.284172 76.815466 C 77.724437 77.221866 78.266447 77.424731 78.909912 77.424731 C 80.366176 77.424731 81.094275 76.679856 81.094275 75.189726 C 81.094275 74.580126 80.874116 74.072186 80.43385 73.665788 C 80.027452 73.225522 79.51951 73.005363 78.909912 73.005363 z " />
    <path
       id="path225"
       style="font-style:normal;font-variant:normal;font-weight:normal;font-stretch:normal;font-size:50.8px;font-family:Bazaronite;-inkscape-font-specification:Bazaronite;fill:#ffff00;stroke:#000000;stroke-width:0.141023"
       d="M 73.829602 73.005363 C 72.339472 73.005363 71.594596 73.733462 71.594596 75.189726 C 71.594596 75.833191 71.79798 76.375201 72.204378 76.815466 C 72.644644 77.221866 73.186137 77.424731 73.829602 77.424731 C 75.285866 77.424731 76.013965 76.679856 76.013965 75.189726 C 76.013965 74.580126 75.793806 74.072186 75.35354 73.665788 C 74.94714 73.225522 74.4392 73.005363 73.829602 73.005363 z " />
    <path
       id="path306"
       style="font-style:normal;font-variant:normal;font-weight:normal;font-stretch:normal;font-size:50.8px;font-family:Bazaronite;-inkscape-font-specification:Bazaronite;fill:#ff0000;stroke:#000000;stroke-width:0.141023"
       d="M 68.749809 73.005363 C 67.259678 73.005363 66.514286 73.733462 66.514286 75.189726 C 66.514286 75.833191 66.71767 76.375201 67.124068 76.815466 C 67.564334 77.221866 68.106343 77.424731 68.749809 77.424731 C 70.206072 77.424731 70.934172 76.679856 70.934172 75.189726 C 70.934172 74.580126 70.714012 74.072186 70.273747 73.665788 C 69.867347 73.225522 69.359407 73.005363 68.749809 73.005363 z " />
    <path
       id="path224"
       style="font-style:normal;font-variant:normal;font-weight:normal;font-stretch:normal;font-size:50.8px;font-family:Bazaronite;-inkscape-font-specification:Bazaronite;fill:#ff0000;stroke:#000000;stroke-width:0.141023"
       d="M 55.338741 73.005363 C 53.848611 73.005363 53.103219 73.733462 53.103219 75.189726 C 53.103219 75.833191 53.306602 76.375201 53.713 76.815466 C 54.153267 77.221866 54.695276 77.424731 55.338741 77.424731 C 56.795005 77.424731 57.523104 76.679856 57.523104 75.189726 C 57.523104 74.580126 57.302945 74.072186 56.862679 73.665788 C 56.456279 73.225522 55.948339 73.005363 55.338741 73.005363 z " />
    <path
       id="path293"
       style="font-style:normal;font-variant:normal;font-weight:normal;font-stretch:normal;font-size:50.8px;font-family:Bazaronite;-inkscape-font-specification:Bazaronite;fill:#ffff00;stroke:#000000;stroke-width:0.141023"
       d="M 50.258431 73.005363 C 48.7683 73.005363 48.023425 73.733462 48.023425 75.189726 C 48.023425 75.833191 48.226292 76.375201 48.63269 76.815466 C 49.072957 77.221866 49.614966 77.424731 50.258431 77.424731 C 51.714695 77.424731 52.442794 76.679856 52.442794 75.189726 C 52.442794 74.580126 52.222635 74.072186 51.782369 73.665788 C 51.375969 73.225522 50.868029 73.005363 50.258431 73.005363 z " />
    <path
       id="path223"
       style="font-style:normal;font-variant:normal;font-weight:normal;font-stretch:normal;font-size:50.8px;font-family:Bazaronite;-inkscape-font-specification:Bazaronite;fill:#ff0000;stroke:#000000;stroke-width:0.141023"
       d="M 45.178638 73.005363 C 43.688507 73.005363 42.943115 73.733462 42.943115 75.189726 C 42.943115 75.833191 43.146499 76.375201 43.552897 76.815466 C 43.993163 77.221866 44.535172 77.424731 45.178638 77.424731 C 46.634901 77.424731 47.363 76.679856 47.363 75.189726 C 47.363 74.580126 47.142841 74.072186 46.702576 73.665788 C 46.296176 73.225522 45.788236 73.005363 45.178638 73.005363 z " />
    <path
       id="path290"
       style="font-style:normal;font-variant:normal;font-weight:normal;font-stretch:normal;font-size:50.8px;font-family:Bazaronite;-inkscape-font-specification:Bazaronite;fill:#ffff00;stroke:#000000;stroke-width:0.141023"
       d="M 40.098328 73.005363 C 38.608197 73.005363 37.863322 73.733462 37.863322 75.189726 C 37.863322 75.833191 38.066704 76.375201 38.473104 76.815466 C 38.913369 77.221866 39.454862 77.424731 40.098328 77.424731 C 41.554591 77.424731 42.28269 76.679856 42.28269 75.189726 C 42.28269 74.580126 42.063049 74.072186 41.622782 73.665788 C 41.216384 73.225522 40.707926 73.005363 40.098328 73.005363 z " />
    <path
       id="path222"
       style="font-style:normal;font-variant:normal;font-weight:normal;font-stretch:normal;font-size:50.8px;font-family:Bazaronite;-inkscape-font-specification:Bazaronite;fill:#ffff00;stroke:#000000;stroke-width:0.141023"
       d="M 35.018534 73.005363 C 34.646002 73.005363 34.320216 73.050772 34.040816 73.141789 C 33.761418 73.232805 33.528417 73.36955 33.342151 73.551583 C 33.249018 73.642599 33.167571 73.74477 33.097721 73.858541 C 32.958021 74.086082 32.864718 74.359055 32.818152 74.677612 C 32.794869 74.836891 32.783529 75.007693 32.783529 75.189726 C 32.783529 75.350592 32.795852 75.505097 32.821252 75.653263 C 32.872052 75.949596 32.973745 76.220601 33.126143 76.466134 C 33.202343 76.5889 33.291194 76.7054 33.392794 76.815466 C 33.50286 76.917066 33.619361 77.005917 33.742126 77.082117 C 33.98766 77.234517 34.258664 77.336208 34.554997 77.387008 C 34.703163 77.412408 34.857669 77.424731 35.018534 77.424731 C 35.200567 77.424731 35.371369 77.413392 35.530648 77.390108 C 35.849205 77.343542 36.122178 77.250239 36.349719 77.110539 C 36.691031 76.900989 36.929946 76.586542 37.066471 76.167444 C 37.157488 75.888044 37.202897 75.562258 37.202897 75.189726 C 37.202897 75.037326 37.189073 74.891208 37.161556 74.75151 C 37.134039 74.61181 37.093083 74.478534 37.038049 74.351534 C 36.983016 74.224534 36.913894 74.104099 36.831344 73.989799 C 36.748794 73.875499 36.652539 73.767388 36.542472 73.665788 C 36.339274 73.445655 36.110726 73.280793 35.856726 73.170728 C 35.729726 73.115694 35.59645 73.074221 35.45675 73.046704 C 35.317052 73.019187 35.170934 73.005363 35.018534 73.005363 z " />
    <path
       id="path281"
       style="font-style:normal;font-variant:normal;font-weight:normal;font-stretch:normal;font-size:50.8px;font-family:Bazaronite;-inkscape-font-specification:Bazaronite;fill:#ff0000;stroke:#000000;stroke-width:0.141023"
       d="M 29.938741 73.005363 C 28.448611 73.005363 27.703219 73.733462 27.703219 75.189726 C 27.703219 75.833191 27.906602 76.375201 28.313 76.815466 C 28.753267 77.221866 29.295276 77.424731 29.938741 77.424731 C 31.395005 77.424731 32.123104 76.679856 32.123104 75.189726 C 32.123104 74.580126 31.902945 74.072186 31.462679 73.665788 C 31.056279 73.225522 30.548339 73.005363 29.938741 73.005363 z " />
    <path
       id="path221"
       style="font-style:normal;font-variant:normal;font-weight:normal;font-stretch:normal;font-size:50.8px;font-family:Bazaronite;-inkscape-font-specification:Bazaronite;fill:#ffff00;stroke:#000000;stroke-width:0.141023"
       d="M 170.40045 67.92557 C 168.91032 67.92557 168.16545 68.653667 168.16545 70.109932 C 168.16545 70.753398 168.36831 71.29489 168.77471 71.735156 C 169.21498 72.141556 169.75699 72.344938 170.40045 72.344938 C 171.85672 72.344938 172.58481 71.600064 172.58481 70.109932 C 172.58481 69.500333 172.36466 68.992394 171.92439 68.585994 C 171.51799 68.145728 171.01005 67.92557 170.40045 67.92557 z " />
    <path
       id="path220"
       style="font-style:normal;font-variant:normal;font-weight:normal;font-stretch:normal;font-size:50.8px;font-family:Bazaronite;-inkscape-font-specification:Bazaronite;fill:#ff0000;stroke:#000000;stroke-width:0.141023"
       d="M 165.32066 67.92557 C 163.83053 67.92557 163.08514 68.653669 163.08514 70.109932 C 163.08514 70.753398 163.28852 71.294891 163.69492 71.735156 C 164.13518 72.141556 164.67719 72.344938 165.32066 72.344938 C 166.77692 72.344938 167.50502 71.600063 167.50502 70.109932 C 167.50502 69.500334 167.28486 68.992394 166.8446 68.585994 C 166.4382 68.145729 165.93026 67.92557 165.32066 67.92557 z " />
    <path
       id="path336"
       style="font-style:normal;font-variant:normal;font-weight:normal;font-stretch:normal;font-size:50.8px;font-family:Bazaronite;-inkscape-font-specification:Bazaronite;fill:#ffff00;stroke:#000000;stroke-width:0.141023"
       d="M 160.24035 67.92557 C 158.75022 67.92557 158.00534 68.653669 158.00534 70.109932 C 158.00534 70.753398 158.20872 71.294891 158.61512 71.735156 C 159.05539 72.141556 159.59688 72.344938 160.24035 72.344938 C 161.69661 72.344938 162.42471 71.600063 162.42471 70.109932 C 162.42471 69.500334 162.20455 68.992394 161.76429 68.585994 C 161.35789 68.145729 160.84995 67.92557 160.24035 67.92557 z " />
    <path
       id="path219"
       style="font-style:normal;font-variant:normal;font-weight:normal;font-stretch:normal;font-size:50.8px;font-family:Bazaronite;-inkscape-font-specification:Bazaronite;fill:#ff0000;stroke:#000000;stroke-width:0.141023"
       d="M 155.16056 67.92557 C 153.67042 67.92557 152.92555 68.653669 152.92555 70.109932 C 152.92555 70.753398 153.12841 71.294891 153.53481 71.735156 C 153.97508 72.141556 154.51709 72.344938 155.16056 72.344938 C 156.61681 72.344938 157.34492 71.600063 157.34492 70.109932 C 157.34492 69.500334 157.12476 68.992394 156.68449 68.585994 C 156.27809 68.145729 155.77014 67.92557 155.16056 67.92557 z " />
    <path
       id="path335"
       style="font-style:normal;font-variant:normal;font-weight:normal;font-stretch:normal;font-size:50.8px;font-family:Bazaronite;-inkscape-font-specification:Bazaronite;fill:#ff0000;stroke:#000000;stroke-width:0.141023"
       d="M 150.08024 67.92557 C 148.59012 67.92557 147.84524 68.653669 147.84524 70.109932 C 147.84524 70.753398 148.04862 71.294891 148.45502 71.735156 C 148.89529 72.141556 149.43679 72.344938 150.08024 72.344938 C 151.53651 72.344938 152.26512 71.600063 152.26512 70.109932 C 152.26512 69.500334 152.04497 68.992394 151.6047 68.585994 C 151.1983 68.145729 150.68984 67.92557 150.08024 67.92557 z " />
    <path
       id="path218"
       style="font-style:normal;font-variant:normal;font-weight:normal;font-stretch:normal;font-size:50.8px;font-family:Bazaronite;-inkscape-font-specification:Bazaronite;fill:#ffff00;stroke:#000000;stroke-width:0.141023"
       d="M 132.96088 67.92557 C 131.47074 67.92557 130.72587 68.653669 130.72587 70.109932 C 130.72587 70.753398 130.92874 71.294891 131.33514 71.735156 C 131.7754 72.141556 132.31741 72.344938 132.96088 72.344938 C 134.41714 72.344938 135.14524 71.600063 135.14524 70.109932 C 135.14524 69.500334 134.92508 68.992394 134.48481 68.585994 C 134.07841 68.145729 133.57048 67.92557 132.96088 67.92557 z " />
    <path
       id="path325"
       style="font-style:normal;font-variant:normal;font-weight:normal;font-stretch:normal;font-size:50.8px;font-family:Bazaronite;-inkscape-font-specification:Bazaronite;fill:#ffff00;stroke:#000000;stroke-width:0.141023"
       d="M 127.88108 67.92557 C 126.39095 67.92557 125.64556 68.653669 125.64556 70.109932 C 125.64556 70.753398 125.84894 71.294891 126.25534 71.735156 C 126.69561 72.141556 127.23762 72.344938 127.88108 72.344938 C 129.33735 72.344938 130.06545 71.600063 130.06545 70.109932 C 130.06545 69.500334 129.84529 68.992394 129.40502 68.585994 C 128.99862 68.145729 128.49068 67.92557 127.88108 67.92557 z " />
    <path
       id="path217"
       style="font-style:normal;font-variant:normal;font-weight:normal;font-stretch:normal;font-size:50.8px;font-family:Bazaronite;-inkscape-font-specification:Bazaronite;fill:#ff0000;stroke:#000000;stroke-width:0.141023"
       d="M 122.80077 67.92557 C 121.31064 67.92557 120.56577 68.653669 120.56577 70.109932 C 120.56577 70.753398 120.76915 71.294891 121.17555 71.735156 C 121.61582 72.141556 122.15731 72.344938 122.80077 72.344938 C 124.25704 72.344938 124.98514 71.600063 124.98514 70.109932 C 124.98514 69.500334 124.76498 68.992394 124.32471 68.585994 C 123.91831 68.145729 123.41037 67.92557 122.80077 67.92557 z " />
    <path
       id="path324"
       style="font-style:normal;font-variant:normal;font-weight:normal;font-stretch:normal;font-size:50.8px;font-family:Bazaronite;-inkscape-font-specification:Bazaronite;fill:#ffff00;stroke:#000000;stroke-width:0.141023"
       d="M 117.72098 67.92557 C 116.23085 67.92557 115.48597 68.653669 115.48597 70.109932 C 115.48597 70.753398 115.68884 71.294891 116.09524 71.735156 C 116.53551 72.141556 117.07751 72.344938 117.72098 72.344938 C 119.17725 72.344938 119.90534 71.600063 119.90534 70.109932 C 119.90534 69.500334 119.68518 68.992394 119.24492 68.585994 C 118.83852 68.145729 118.33058 67.92557 117.72098 67.92557 z " />
    <path
       id="path216"
       style="font-style:normal;font-variant:normal;font-weight:normal;font-stretch:normal;font-size:50.8px;font-family:Bazaronite;-inkscape-font-specification:Bazaronite;fill:#ff0000;stroke:#000000;stroke-width:0.141023"
       d="M 112.64067 67.92557 C 111.15054 67.92557 110.40566 68.653669 110.40566 70.109932 C 110.40566 70.753398 110.60905 71.294891 111.01545 71.735156 C 111.45571 72.141556 111.9972 72.344938 112.64067 72.344938 C 114.09693 72.344938 114.82555 71.600063 114.82555 70.109932 C 114.82555 69.500334 114.60539 68.992394 114.16512 68.585994 C 113.75872 68.145729 113.25027 67.92557 112.64067 67.92557 z " />
    <path
       id="path323"
       style="font-style:normal;font-variant:normal;font-weight:normal;font-stretch:normal;font-size:50.8px;font-family:Bazaronite;-inkscape-font-specification:Bazaronite;fill:#ff0000;stroke:#000000;stroke-width:0.141023"
       d="M 107.56088 67.92557 C 106.07074 67.92557 105.32587 68.653669 105.32587 70.109932 C 105.32587 70.753398 105.52874 71.294891 105.93514 71.735156 C 106.3754 72.141556 106.91741 72.344938 107.56088 72.344938 C 109.01714 72.344938 109.74524 71.600063 109.74524 70.109932 C 109.74524 69.500334 109.52508 68.992394 109.08481 68.585994 C 108.67841 68.145729 108.17048 67.92557 107.56088 67.92557 z " />
    <path
       id="path215"
       style="font-style:normal;font-variant:normal;font-weight:normal;font-stretch:normal;font-size:50.8px;font-family:Bazaronite;-inkscape-font-specification:Bazaronite;fill:#ff0000;stroke:#000000;stroke-width:0.141023"
       d="M 89.069499 67.92557 C 87.579368 67.92557 86.834493 68.653669 86.834493 70.109932 C 86.834493 70.753398 87.037875 71.294891 87.444275 71.735156 C 87.88454 72.141556 88.426033 72.344938 89.069499 72.344938 C 90.525762 72.344938 91.254378 71.600063 91.254378 70.109932 C 91.254378 69.500334 91.03422 68.992394 90.593953 68.585994 C 90.187555 68.145729 89.679097 67.92557 89.069499 67.92557 z " />
    <path
       id="path302"
       style="font-style:normal;font-variant:normal;font-weight:normal;font-stretch:normal;font-size:50.8px;font-family:Bazaronite;-inkscape-font-specification:Bazaronite;fill:#ff0000;stroke:#000000;stroke-width:0.141023"
       d="M 83.989705 67.92557 C 82.499576 67.92557 81.7547 68.653669 81.7547 70.109932 C 81.7547 70.753398 81.957565 71.294891 82.363965 71.735156 C 82.80423 72.141556 83.34624 72.344938 83.989705 72.344938 C 85.44597 72.344938 86.174068 71.600063 86.174068 70.109932 C 86.174068 69.500334 85.95391 68.992394 85.513643 68.585994 C 85.107245 68.145729 84.599305 67.92557 83.989705 67.92557 z " />
    <path
       id="path214"
       style="font-style:normal;font-variant:normal;font-weight:normal;font-stretch:normal;font-size:50.8px;font-family:Bazaronite;-inkscape-font-specification:Bazaronite;fill:#ffff00;stroke:#000000;stroke-width:0.141023"
       d="M 78.909912 67.92557 C 77.419782 67.92557 76.67439 68.653669 76.67439 70.109932 C 76.67439 70.753398 76.877772 71.294891 77.284172 71.735156 C 77.724437 72.141556 78.266447 72.344938 78.909912 72.344938 C 80.366176 72.344938 81.094275 71.600063 81.094275 70.109932 C 81.094275 69.500334 80.874116 68.992394 80.43385 68.585994 C 80.027452 68.145729 79.51951 67.92557 78.909912 67.92557 z " />
    <path
       id="path301"
       style="font-style:normal;font-variant:normal;font-weight:normal;font-stretch:normal;font-size:50.8px;font-family:Bazaronite;-inkscape-font-specification:Bazaronite;fill:#ffff00;stroke:#000000;stroke-width:0.141023"
       d="M 73.829602 67.92557 C 72.339472 67.92557 71.594596 68.653669 71.594596 70.109932 C 71.594596 70.753398 71.79798 71.294891 72.204378 71.735156 C 72.644644 72.141556 73.186137 72.344938 73.829602 72.344938 C 75.285866 72.344938 76.013965 71.600063 76.013965 70.109932 C 76.013965 69.500334 75.793806 68.992394 75.35354 68.585994 C 74.94714 68.145729 74.4392 67.92557 73.829602 67.92557 z " />
    <path
       id="path213"
       style="font-style:normal;font-variant:normal;font-weight:normal;font-stretch:normal;font-size:50.8px;font-family:Bazaronite;-inkscape-font-specification:Bazaronite;fill:#ff0000;stroke:#000000;stroke-width:0.141023"
       d="M 50.258431 67.92557 C 48.768299 67.92557 48.023425 68.653667 48.023425 70.109932 C 48.023425 70.753398 48.226291 71.29489 48.63269 71.735156 C 49.072957 72.141556 49.614965 72.344938 50.258431 72.344938 C 51.714696 72.344938 52.442794 71.600064 52.442794 70.109932 C 52.442794 69.500333 52.222635 68.992394 51.782369 68.585994 C 51.375969 68.145728 50.86803 67.92557 50.258431 67.92557 z " />
    <path
       id="path212"
       style="font-style:normal;font-variant:normal;font-weight:normal;font-stretch:normal;font-size:50.8px;font-family:Bazaronite;-inkscape-font-specification:Bazaronite;fill:#ffff00;stroke:#000000;stroke-width:0.141023"
       d="M 45.178638 67.92557 C 43.688507 67.92557 42.943115 68.653669 42.943115 70.109932 C 42.943115 70.753398 43.146499 71.294891 43.552897 71.735156 C 43.993163 72.141556 44.535172 72.344938 45.178638 72.344938 C 46.634901 72.344938 47.363 71.600063 47.363 70.109932 C 47.363 69.500334 47.142841 68.992394 46.702576 68.585994 C 46.296176 68.145729 45.788236 67.92557 45.178638 67.92557 z " />
    <path
       id="path289"
       style="font-style:normal;font-variant:normal;font-weight:normal;font-stretch:normal;font-size:50.8px;font-family:Bazaronite;-inkscape-font-specification:Bazaronite;fill:#ffff00;stroke:#000000;stroke-width:0.141023"
       d="M 40.098328 67.92557 C 38.608197 67.92557 37.863322 68.653669 37.863322 70.109932 C 37.863322 70.753398 38.066704 71.294891 38.473104 71.735156 C 38.913369 72.141556 39.454862 72.344938 40.098328 72.344938 C 41.554591 72.344938 42.28269 71.600063 42.28269 70.109932 C 42.28269 69.500334 42.063049 68.992394 41.622782 68.585994 C 41.216384 68.145729 40.707926 67.92557 40.098328 67.92557 z " />
    <path
       id="path211"
       style="font-style:normal;font-variant:normal;font-weight:normal;font-stretch:normal;font-size:50.8px;font-family:Bazaronite;-inkscape-font-specification:Bazaronite;fill:#ff0000;stroke:#000000;stroke-width:0.141023"
       d="M 35.018534 67.92557 C 33.528405 67.92557 32.783529 68.653669 32.783529 70.109932 C 32.783529 70.753398 32.986394 71.294891 33.392794 71.735156 C 33.833059 72.141556 34.375069 72.344938 35.018534 72.344938 C 36.474799 72.344938 37.202897 71.600063 37.202897 70.109932 C 37.202897 69.500334 36.982739 68.992394 36.542472 68.585994 C 36.136074 68.145729 35.628134 67.92557 35.018534 67.92557 z " />
    <path
       id="path280"
       style="font-style:normal;font-variant:normal;font-weight:normal;font-stretch:normal;font-size:50.8px;font-family:Bazaronite;-inkscape-font-specification:Bazaronite;fill:#ffff00;stroke:#000000;stroke-width:0.141023"
       d="M 29.938741 67.92557 C 28.448611 67.92557 27.703219 68.653669 27.703219 70.109932 C 27.703219 70.753398 27.906602 71.294891 28.313 71.735156 C 28.753267 72.141556 29.295276 72.344938 29.938741 72.344938 C 31.395005 72.344938 32.123104 71.600063 32.123104 70.109932 C 32.123104 69.500334 31.902945 68.992394 31.462679 68.585994 C 31.056279 68.145729 30.548339 67.92557 29.938741 67.92557 z " />
  </g>
</svg>
