<?xml version="1.0" standalone="no"?>
<!DOCTYPE svg PUBLIC "-//W3C//DTD SVG 1.1//EN"
  "http://www.w3.org/Graphics/SVG/1.1/DTD/svg11.dtd">
<svg width="82mm" height="89.49999999999999mm" viewBox="-49.5 -48.49999999999999 82 89.49999999999999" xmlns="http://www.w3.org/2000/svg" version="1.1">
	<title>svgOutput</title>
	<desc>made with tinkercad</desc>
<path d="M 31.5 39.99999999999999 L 21.24799919128418 39.99999999999999 L 19 39.99999999999999 L 6.5 39.99999999999999 L 6.5 27.499999999999993 L 19 27.499999999999993 L 21.24799919128418 27.499999999999993 L 29.253000259399414 27.499999999999993 L 31.5 27.499999999999993 L 31.5 37.752998352050774 L 31.5 39.99999999999999 M 31.5 9.999999999999998 L 21.24799919128418 9.999999999999998 L 19 9.999999999999998 L 6.5 9.999999999999998 L 6.5 -2.4999999999999996 L 19 -2.4999999999999996 L 21.24799919128418 -2.4999999999999996 L 29.253000259399414 -2.4999999999999996 L 31.5 -2.4999999999999996 L 31.5 7.752999782562254 L 31.5 9.999999999999998 M 31.5 24.999999999999993 L 21.24799919128418 24.999999999999993 L 19 24.999999999999993 L 6.5 24.999999999999993 L 6.5 12.499999999999996 L 19 12.499999999999996 L 21.24799919128418 12.499999999999996 L 29.253000259399414 12.499999999999996 L 31.5 12.499999999999996 L 31.5 22.75300025939941 L 31.5 24.999999999999993 M 31.5 -4.999999999999999 L 21.24799919128418 -4.999999999999999 L 19 -4.999999999999999 L 6.5 -4.999999999999999 L 6.5 -17.499999999999996 L 19 -17.499999999999996 L 21.24799919128418 -17.499999999999996 L 29.253000259399414 -17.499999999999996 L 31.5 -17.499999999999996 L 31.5 -7.248000144958494 L 31.5 -4.999999999999999 M 31.5 -34.99999999999999 L 21.24799919128418 -34.99999999999999 L 19 -34.99999999999999 L 6.5 -34.99999999999999 L 6.5 -47.49999999999999 L 19 -47.49999999999999 L 21.24799919128418 -47.49999999999999 L 29.253000259399414 -47.49999999999999 L 31.5 -47.49999999999999 L 31.5 -37.248001098632805 L 31.5 -34.99999999999999 M 31.5 -19.999999999999996 L 21.24799919128418 -19.999999999999996 L 19 -19.999999999999996 L 6.5 -19.999999999999996 L 6.5 -32.49999999999999 L 19 -32.49999999999999 L 21.24799919128418 -32.49999999999999 L 29.253000259399414 -32.49999999999999 L 31.5 -32.49999999999999 L 31.5 -22.247999191284176 L 31.5 -19.999999999999996 M 4 39.99999999999999 L -6.252999782562256 39.99999999999999 L -8.5 39.99999999999999 L -21 39.99999999999999 L -21 27.499999999999993 L -8.5 27.499999999999993 L -6.252999782562256 27.499999999999993 L 1.753000020980835 27.499999999999993 L 4 27.499999999999993 L 4 37.752998352050774 L 4 39.99999999999999 M 4 24.999999999999993 L -6.252999782562256 24.999999999999993 L -8.5 24.999999999999993 L -21 24.999999999999993 L -21 12.499999999999996 L -8.5 12.499999999999996 L -6.252999782562256 12.499999999999996 L 1.753000020980835 12.499999999999996 L 4 12.499999999999996 L 4 22.75300025939941 L 4 24.999999999999993 M 4 9.999999999999998 L -6.252999782562256 9.999999999999998 L -8.5 9.999999999999998 L -21 9.999999999999998 L -21 -2.4999999999999996 L -8.5 -2.4999999999999996 L -6.252999782562256 -2.4999999999999996 L 1.753000020980835 -2.4999999999999996 L 4 -2.4999999999999996 L 4 7.752999782562254 L 4 9.999999999999998 M 4 -4.999999999999999 L -6.252999782562256 -4.999999999999999 L -8.5 -4.999999999999999 L -21 -4.999999999999999 L -21 -17.499999999999996 L -8.5 -17.499999999999996 L -6.252999782562256 -17.499999999999996 L 1.753000020980835 -17.499999999999996 L 4 -17.499999999999996 L 4 -7.248000144958494 L 4 -4.999999999999999 M 4 -19.999999999999996 L -6.252999782562256 -19.999999999999996 L -8.5 -19.999999999999996 L -21 -19.999999999999996 L -21 -32.49999999999999 L -8.5 -32.49999999999999 L -6.252999782562256 -32.49999999999999 L 1.753000020980835 -32.49999999999999 L 4 -32.49999999999999 L 4 -22.247999191284176 L 4 -19.999999999999996 M 4 -34.99999999999999 L -6.252999782562256 -34.99999999999999 L -8.5 -34.99999999999999 L -21 -34.99999999999999 L -21 -47.49999999999999 L -8.5 -47.49999999999999 L -6.252999782562256 -47.49999999999999 L 1.753000020980835 -47.49999999999999 L 4 -47.49999999999999 L 4 -37.248001098632805 L 4 -34.99999999999999 M -23.5 39.99999999999999 L -33.75299835205078 39.99999999999999 L -36 39.99999999999999 L -48.5 39.99999999999999 L -48.5 27.499999999999993 L -36 27.499999999999993 L -33.75299835205078 27.499999999999993 L -25.74799919128418 27.499999999999993 L -23.5 27.499999999999993 L -23.5 37.752998352050774 L -23.5 39.99999999999999 M -23.5 24.999999999999993 L -33.75299835205078 24.999999999999993 L -36 24.999999999999993 L -48.5 24.999999999999993 L -48.5 12.499999999999996 L -36 12.499999999999996 L -33.75299835205078 12.499999999999996 L -25.74799919128418 12.499999999999996 L -23.5 12.499999999999996 L -23.5 22.75300025939941 L -23.5 24.999999999999993 M -23.5 9.999999999999998 L -33.75299835205078 9.999999999999998 L -36 9.999999999999998 L -48.5 9.999999999999998 L -48.5 -2.4999999999999996 L -36 -2.4999999999999996 L -33.75299835205078 -2.4999999999999996 L -25.74799919128418 -2.4999999999999996 L -23.5 -2.4999999999999996 L -23.5 7.752999782562254 L -23.5 9.999999999999998 M -23.5 -4.999999999999999 L -33.75299835205078 -4.999999999999999 L -36 -4.999999999999999 L -48.5 -4.999999999999999 L -48.5 -17.499999999999996 L -36 -17.499999999999996 L -33.75299835205078 -17.499999999999996 L -25.74799919128418 -17.499999999999996 L -23.5 -17.499999999999996 L -23.5 -7.248000144958494 L -23.5 -4.999999999999999 M -23.5 -19.999999999999996 L -33.75299835205078 -19.999999999999996 L -36 -19.999999999999996 L -48.5 -19.999999999999996 L -48.5 -32.49999999999999 L -36 -32.49999999999999 L -33.75299835205078 -32.49999999999999 L -25.74799919128418 -32.49999999999999 L -23.5 -32.49999999999999 L -23.5 -22.247999191284176 L -23.5 -19.999999999999996 M -23.5 -34.99999999999999 L -33.75299835205078 -34.99999999999999 L -36 -34.99999999999999 L -48.5 -34.99999999999999 L -48.5 -47.49999999999999 L -36 -47.49999999999999 L -33.75299835205078 -47.49999999999999 L -25.74799919128418 -47.49999999999999 L -23.5 -47.49999999999999 L -23.5 -37.248001098632805 L -23.5 -34.99999999999999 M 22.711000442504883 36.844001770019524 L 22.73792266845703 36.86399841308593 L 23.025999069213867 37.07799911499023 L 23.363000869750977 37.27999877929687 L 23.718000411987305 37.44800186157226 L 24.08799934387207 37.58000183105468 L 24.4689998626709 37.67599868774413 L 24.576000213623047 37.69167709350585 L 24.857999801635742 37.73300170898437 L 25.25 37.752998352050774 L 25.642000198364258 37.73300170898437 L 26.0310001373291 37.67599868774413 L 26.41200065612793 37.58000183105468 L 26.781999588012695 37.44800186157226 L 27.136999130249023 37.27999877929687 L 27.474000930786133 37.07799911499023 L 27.76207733154297 36.86399841308593 L 27.788999557495117 36.844001770019524 L 28.079999923706055 36.58000183105468 L 28.3439998626709 36.28900146484374 L 28.577999114990234 35.97399902343749 L 28.780000686645508 35.63700103759765 L 28.947999954223633 35.28200149536132 L 29.079999923706055 34.91199874877929 L 29.176000595092773 34.53099822998046 L 29.232999801635742 34.14199829101562 L 29.253000259399414 33.74999999999999 L 29.232999801635742 33.35800170898437 L 29.176000595092773 32.969001770019524 L 29.125354766845703 32.76800155639648 L 29.079999923706055 32.588001251220696 L 28.947999954223633 32.217998504638665 L 28.780000686645508 31.86300086975097 L 28.577999114990234 31.52599906921386 L 28.3439998626709 31.211000442504876 L 28.079999923706055 30.920000076293938 L 27.788999557495117 30.656000137329094 L 27.474000930786133 30.42200088500976 L 27.136999130249023 30.219999313354485 L 26.781999588012695 30.05200004577636 L 26.41200065612793 29.920000076293938 L 26.0310001373291 29.82399940490722 L 25.642000198364258 29.76700019836425 L 25.25 29.747999191284173 L 24.857999801635742 29.76700019836425 L 24.576000213623047 29.8083209991455 L 24.4689998626709 29.82399940490722 L 24.08799934387207 29.920000076293938 L 23.718000411987305 30.05200004577636 L 23.363000869750977 30.219999313354485 L 23.025999069213867 30.42200088500976 L 22.711000442504883 30.656000137329094 L 22.420000076293945 30.920000076293938 L 22.1560001373291 31.211000442504876 L 21.922000885009766 31.52599906921386 L 21.719999313354492 31.86300086975097 L 21.552000045776367 32.217998504638665 L 21.420000076293945 32.588001251220696 L 21.374645233154297 32.76800155639648 L 21.323999404907227 32.969001770019524 L 21.267000198364258 33.35800170898437 L 21.24799919128418 33.74999999999999 L 21.267000198364258 34.14199829101562 L 21.323999404907227 34.53099822998046 L 21.420000076293945 34.91199874877929 L 21.552000045776367 35.28200149536132 L 21.719999313354492 35.63700103759765 L 21.922000885009766 35.97399902343749 L 22.1560001373291 36.28900146484374 L 22.420000076293945 36.58000183105468 L 22.711000442504883 36.844001770019524 M 21.267000198364258 3.3580000400543204 L 21.24799919128418 3.749999999999999 L 21.2647705078125 4.09600019454956 L 21.267000198364258 4.142000198364257 L 21.323999404907227 4.531000137329101 L 21.420000076293945 4.912000179290771 L 21.552000045776367 5.282000064849853 L 21.719999313354492 5.637000083923339 L 21.922000885009766 5.9739999771118155 L 22.1560001373291 6.289000034332274 L 22.420000076293945 6.579999923706053 L 22.711000442504883 6.843999862670897 L 23.025999069213867 7.078000068664549 L 23.363000869750977 7.280000209808348 L 23.718000411987305 7.447999954223631 L 24.08799934387207 7.579999923706053 L 24.4689998626709 7.6760001182556135 L 24.576000213623047 7.691678524017332 L 24.857999801635742 7.73299980163574 L 25.25 7.752999782562254 L 25.642000198364258 7.73299980163574 L 26.0310001373291 7.6760001182556135 L 26.41200065612793 7.579999923706053 L 26.781999588012695 7.447999954223631 L 27.136999130249023 7.280000209808348 L 27.474000930786133 7.078000068664549 L 27.788999557495117 6.843999862670897 L 28.079999923706055 6.579999923706053 L 28.3439998626709 6.289000034332274 L 28.577999114990234 5.9739999771118155 L 28.672000885009766 5.81717824935913 L 28.780000686645508 5.637000083923339 L 28.947999954223633 5.282000064849853 L 29.079999923706055 4.912000179290771 L 29.176000595092773 4.531000137329101 L 29.232999801635742 4.142000198364257 L 29.235347747802734 4.09600019454956 L 29.253000259399414 3.749999999999999 L 29.232999801635742 3.3580000400543204 L 29.176000595092773 2.969000101089477 L 29.079999923706055 2.588000059127807 L 28.947999954223633 2.217999935150146 L 28.780000686645508 1.8630000352859493 L 28.577999114990234 1.5260000228881831 L 28.3439998626709 1.2109999656677246 L 28.079999923706055 0.9200000166893004 L 27.788999557495117 0.656000018119812 L 27.474000930786133 0.421999990940094 L 27.136999130249023 0.21999999880790716 L 26.781999588012695 0.0520000010728837 L 26.636241912841797 1.1102230246251565e-16 L 26.41200065612793 -0.07999999821186053 L 26.0310001373291 -0.17599999904632554 L 25.642000198364258 -0.23299999535083754 L 25.25 -0.2529999911785124 L 24.857999801635742 -0.23299999535083754 L 24.4689998626709 -0.17599999904632554 L 24.08799934387207 -0.07999999821186053 L 23.863758087158203 1.1102230246251565e-16 L 23.718000411987305 0.0520000010728837 L 23.363000869750977 0.21999999880790716 L 23.025999069213867 0.421999990940094 L 22.711000442504883 0.656000018119812 L 22.420000076293945 0.9200000166893004 L 22.1560001373291 1.2109999656677246 L 21.922000885009766 1.5260000228881831 L 21.719999313354492 1.8630000352859493 L 21.552000045776367 2.217999935150146 L 21.420000076293945 2.588000059127807 L 21.323999404907227 2.969000101089477 L 21.267000198364258 3.3580000400543204 M 21.552000045776367 20.28199958801269 L 21.645702362060547 20.479999542236325 L 21.719999313354492 20.63699913024902 L 21.922000885009766 20.97400093078613 L 22.1560001373291 21.288999557495114 L 22.420000076293945 21.57999992370605 L 22.711000442504883 21.843999862670895 L 23.025999069213867 22.07799911499023 L 23.363000869750977 22.280000686645504 L 23.718000411987305 22.44799995422363 L 24.08799934387207 22.57999992370605 L 24.4689998626709 22.67600059509277 L 24.576000213623047 22.69167900085449 L 24.857999801635742 22.73299980163574 L 25.25 22.75300025939941 L 25.642000198364258 22.73299980163574 L 26.0310001373291 22.67600059509277 L 26.41200065612793 22.57999992370605 L 26.781999588012695 22.44799995422363 L 27.136999130249023 22.280000686645504 L 27.474000930786133 22.07799911499023 L 27.788999557495117 21.843999862670895 L 28.079999923706055 21.57999992370605 L 28.3439998626709 21.288999557495114 L 28.577999114990234 20.97400093078613 L 28.780000686645508 20.63699913024902 L 28.854297637939453 20.479999542236325 L 28.947999954223633 20.28199958801269 L 29.079999923706055 19.912000656127926 L 29.176000595092773 19.531000137329098 L 29.232999801635742 19.142000198364254 L 29.253000259399414 18.749999999999996 L 29.232999801635742 18.35799980163574 L 29.176000595092773 17.968999862670895 L 29.079999923706055 17.587999343872067 L 28.947999954223633 17.2180004119873 L 28.780000686645508 16.863000869750973 L 28.577999114990234 16.525999069213864 L 28.472515106201172 16.38400077819824 L 28.3439998626709 16.21100044250488 L 28.079999923706055 15.920000076293942 L 27.788999557495117 15.656000137329098 L 27.474000930786133 15.421999931335446 L 27.136999130249023 15.220000267028805 L 26.781999588012695 15.052000045776364 L 26.41200065612793 14.920000076293942 L 26.0310001373291 14.82400035858154 L 25.642000198364258 14.767000198364254 L 25.25 14.748000144958493 L 24.857999801635742 14.767000198364254 L 24.576000213623047 14.808320999145504 L 24.4689998626709 14.82400035858154 L 24.08799934387207 14.920000076293942 L 23.718000411987305 15.052000045776364 L 23.363000869750977 15.220000267028805 L 23.025999069213867 15.421999931335446 L 22.711000442504883 15.656000137329098 L 22.420000076293945 15.920000076293942 L 22.1560001373291 16.21100044250488 L 22.027484893798828 16.38400077819824 L 21.922000885009766 16.525999069213864 L 21.719999313354492 16.863000869750973 L 21.552000045776367 17.2180004119873 L 21.420000076293945 17.587999343872067 L 21.323999404907227 17.968999862670895 L 21.267000198364258 18.35799980163574 L 21.24799919128418 18.749999999999996 L 21.267000198364258 19.142000198364254 L 21.323999404907227 19.531000137329098 L 21.420000076293945 19.912000656127926 L 21.552000045776367 20.28199958801269 M 24.857999801635742 -7.267000198364256 L 25.25 -7.248000144958494 L 25.642000198364258 -7.267000198364256 L 26.0310001373291 -7.323999881744383 L 26.41200065612793 -7.4200000762939435 L 26.781999588012695 -7.552000045776365 L 27.136999130249023 -7.719999790191649 L 27.474000930786133 -7.921999931335447 L 27.788999557495117 -8.1560001373291 L 27.82868194580078 -8.19200038909912 L 28.079999923706055 -8.420000076293944 L 28.3439998626709 -8.711000442504881 L 28.577999114990234 -9.026000022888182 L 28.780000686645508 -9.362999916076658 L 28.947999954223633 -9.718000411987303 L 29.079999923706055 -10.088000297546385 L 29.176000595092773 -10.468999862670897 L 29.232999801635742 -10.85799980163574 L 29.253000259399414 -11.249999999999998 L 29.232999801635742 -11.642000198364256 L 29.176000595092773 -12.031000137329098 L 29.111244201660156 -12.28800010681152 L 29.079999923706055 -12.41199970245361 L 28.947999954223633 -12.781999588012692 L 28.780000686645508 -13.137000083923336 L 28.577999114990234 -13.473999977111813 L 28.3439998626709 -13.788999557495114 L 28.079999923706055 -14.079999923706051 L 27.788999557495117 -14.343999862670895 L 27.474000930786133 -14.578000068664547 L 27.136999130249023 -14.779999732971188 L 26.781999588012695 -14.94799995422363 L 26.41200065612793 -15.079999923706051 L 26.0310001373291 -15.175999641418453 L 25.642000198364258 -15.232999801635739 L 25.25 -15.25300025939941 L 24.857999801635742 -15.232999801635739 L 24.576000213623047 -15.191679000854489 L 24.4689998626709 -15.175999641418453 L 24.08799934387207 -15.079999923706051 L 23.718000411987305 -14.94799995422363 L 23.363000869750977 -14.779999732971188 L 23.025999069213867 -14.578000068664547 L 22.711000442504883 -14.343999862670895 L 22.420000076293945 -14.079999923706051 L 22.1560001373291 -13.788999557495114 L 21.922000885009766 -13.473999977111813 L 21.719999313354492 -13.137000083923336 L 21.552000045776367 -12.781999588012692 L 21.420000076293945 -12.41199970245361 L 21.388755798339844 -12.28800010681152 L 21.323999404907227 -12.031000137329098 L 21.267000198364258 -11.642000198364256 L 21.24799919128418 -11.249999999999998 L 21.267000198364258 -10.85799980163574 L 21.323999404907227 -10.468999862670897 L 21.420000076293945 -10.088000297546385 L 21.552000045776367 -9.718000411987303 L 21.719999313354492 -9.362999916076658 L 21.922000885009766 -9.026000022888182 L 22.1560001373291 -8.711000442504881 L 22.420000076293945 -8.420000076293944 L 22.67131805419922 -8.19200038909912 L 22.711000442504883 -8.1560001373291 L 23.025999069213867 -7.921999931335447 L 23.363000869750977 -7.719999790191649 L 23.718000411987305 -7.552000045776365 L 24.08799934387207 -7.4200000762939435 L 24.4689998626709 -7.323999881744383 L 24.857999801635742 -7.267000198364256 M 24.857999801635742 -37.26699829101562 L 25.25 -37.248001098632805 L 25.642000198364258 -37.26699829101562 L 26.0310001373291 -37.32400131225585 L 26.41200065612793 -37.419998168945305 L 26.781999588012695 -37.55199813842773 L 27.136999130249023 -37.72000122070312 L 27.474000930786133 -37.92200088500976 L 27.788999557495117 -38.15599822998046 L 28.079999923706055 -38.419998168945305 L 28.3439998626709 -38.71099853515624 L 28.577999114990234 -39.02600097656249 L 28.672000885009766 -39.18282318115234 L 28.780000686645508 -39.36299896240234 L 28.947999954223633 -39.717998504638665 L 29.079999923706055 -40.088001251220696 L 29.176000595092773 -40.469001770019524 L 29.232999801635742 -40.85800170898437 L 29.238204956054688 -40.95999908447265 L 29.253000259399414 -41.24999999999999 L 29.232999801635742 -41.64199829101562 L 29.176000595092773 -42.03099822998046 L 29.079999923706055 -42.41199874877929 L 28.947999954223633 -42.78200149536132 L 28.780000686645508 -43.13700103759765 L 28.672000885009766 -43.31717681884765 L 28.577999114990234 -43.47399902343749 L 28.3439998626709 -43.78900146484374 L 28.079999923706055 -44.08000183105468 L 27.788999557495117 -44.344001770019524 L 27.474000930786133 -44.57799911499023 L 27.136999130249023 -44.77999877929687 L 26.781999588012695 -44.94800186157226 L 26.41200065612793 -45.08000183105468 L 26.0310001373291 -45.17599868774413 L 25.642000198364258 -45.23300170898437 L 25.25 -45.252998352050774 L 24.857999801635742 -45.23300170898437 L 24.576000213623047 -45.19167709350585 L 24.4689998626709 -45.17599868774413 L 24.08799934387207 -45.08000183105468 L 23.718000411987305 -44.94800186157226 L 23.363000869750977 -44.77999877929687 L 23.025999069213867 -44.57799911499023 L 22.711000442504883 -44.344001770019524 L 22.420000076293945 -44.08000183105468 L 22.1560001373291 -43.78900146484374 L 21.922000885009766 -43.47399902343749 L 21.719999313354492 -43.13700103759765 L 21.552000045776367 -42.78200149536132 L 21.420000076293945 -42.41199874877929 L 21.323999404907227 -42.03099822998046 L 21.267000198364258 -41.64199829101562 L 21.24799919128418 -41.24999999999999 L 21.262056350708008 -40.95999908447265 L 21.267000198364258 -40.85800170898437 L 21.323999404907227 -40.469001770019524 L 21.420000076293945 -40.088001251220696 L 21.552000045776367 -39.717998504638665 L 21.719999313354492 -39.36299896240234 L 21.922000885009766 -39.02600097656249 L 22.1560001373291 -38.71099853515624 L 22.420000076293945 -38.419998168945305 L 22.711000442504883 -38.15599822998046 L 23.025999069213867 -37.92200088500976 L 23.363000869750977 -37.72000122070312 L 23.718000411987305 -37.55199813842773 L 24.08799934387207 -37.419998168945305 L 24.4689998626709 -37.32400131225585 L 24.576000213623047 -37.30832290649413 L 24.857999801635742 -37.26699829101562 M 24.857999801635742 -22.267000198364254 L 25.25 -22.247999191284176 L 25.642000198364258 -22.267000198364254 L 26.0310001373291 -22.323999404907223 L 26.41200065612793 -22.42000007629394 L 26.781999588012695 -22.552000045776364 L 27.136999130249023 -22.71999931335449 L 27.474000930786133 -22.922000885009762 L 27.788999557495117 -23.156000137329098 L 28.079999923706055 -23.42000007629394 L 28.3439998626709 -23.71100044250488 L 28.577999114990234 -24.02599906921386 L 28.780000686645508 -24.36300086975097 L 28.880800247192383 -24.57600021362304 L 28.947999954223633 -24.718000411987298 L 29.079999923706055 -25.087999343872063 L 29.176000595092773 -25.46899986267089 L 29.232999801635742 -25.857999801635735 L 29.253000259399414 -26.249999999999993 L 29.232999801635742 -26.64200019836425 L 29.176000595092773 -27.031000137329094 L 29.079999923706055 -27.412000656127923 L 28.947999954223633 -27.781999588012688 L 28.780000686645508 -28.136999130249016 L 28.577999114990234 -28.474000930786126 L 28.4309139251709 -28.67200088500976 L 28.3439998626709 -28.78899955749511 L 28.079999923706055 -29.079999923706048 L 27.788999557495117 -29.34399986267089 L 27.474000930786133 -29.577999114990227 L 27.136999130249023 -29.7800006866455 L 26.781999588012695 -29.947999954223626 L 26.41200065612793 -30.079999923706048 L 26.0310001373291 -30.176000595092766 L 25.642000198364258 -30.232999801635735 L 25.25 -30.253000259399407 L 24.857999801635742 -30.232999801635735 L 24.576000213623047 -30.191679000854485 L 24.4689998626709 -30.176000595092766 L 24.08799934387207 -30.079999923706048 L 23.718000411987305 -29.947999954223626 L 23.363000869750977 -29.7800006866455 L 23.025999069213867 -29.577999114990227 L 22.711000442504883 -29.34399986267089 L 22.420000076293945 -29.079999923706048 L 22.1560001373291 -28.78899955749511 L 22.0690860748291 -28.67200088500976 L 21.922000885009766 -28.474000930786126 L 21.719999313354492 -28.136999130249016 L 21.552000045776367 -27.781999588012688 L 21.420000076293945 -27.412000656127923 L 21.323999404907227 -27.031000137329094 L 21.267000198364258 -26.64200019836425 L 21.24799919128418 -26.249999999999993 L 21.267000198364258 -25.857999801635735 L 21.323999404907227 -25.46899986267089 L 21.420000076293945 -25.087999343872063 L 21.552000045776367 -24.718000411987298 L 21.619199752807617 -24.57600021362304 L 21.719999313354492 -24.36300086975097 L 21.922000885009766 -24.02599906921386 L 22.1560001373291 -23.71100044250488 L 22.420000076293945 -23.42000007629394 L 22.711000442504883 -23.156000137329098 L 23.025999069213867 -22.922000885009762 L 23.363000869750977 -22.71999931335449 L 23.718000411987305 -22.552000045776364 L 24.08799934387207 -22.42000007629394 L 24.4689998626709 -22.323999404907223 L 24.576000213623047 -22.308320999145504 L 24.857999801635742 -22.267000198364254 M -4.13700008392334 37.27999877929687 L -4.0960001945495605 37.2994041442871 L -3.7820000648498535 37.44800186157226 L -3.4119999408721924 37.58000183105468 L -3.0309998989105225 37.67599868774413 L -2.6419999599456787 37.73300170898437 L -2.25 37.752998352050774 L -1.8580000400543213 37.73300170898437 L -1.468999981880188 37.67599868774413 L -1.0880000591278076 37.58000183105468 L -0.7179999947547913 37.44800186157226 L -0.3630000054836273 37.27999877929687 L -0.026000000536441803 37.07799911499023 L 0 37.05868530273437 L 0.289000004529953 36.844001770019524 L 0.5799999833106995 36.58000183105468 L 0.843999981880188 36.28900146484374 L 1.0779999494552612 35.97399902343749 L 1.2799999713897705 35.63700103759765 L 1.4479999542236328 35.28200149536132 L 1.5800000429153442 34.91199874877929 L 1.6759999990463257 34.53099822998046 L 1.7330000400543213 34.14199829101562 L 1.753000020980835 33.74999999999999 L 1.7330000400543213 33.35800170898437 L 1.6759999990463257 32.969001770019524 L 1.625354290008545 32.76800155639648 L 1.5800000429153442 32.588001251220696 L 1.4479999542236328 32.217998504638665 L 1.2799999713897705 31.86300086975097 L 1.0779999494552612 31.52599906921386 L 0.843999981880188 31.211000442504876 L 0.5799999833106995 30.920000076293938 L 0.289000004529953 30.656000137329094 L 0 30.441314697265618 L -0.026000000536441803 30.42200088500976 L -0.3630000054836273 30.219999313354485 L -0.7179999947547913 30.05200004577636 L -1.0880000591278076 29.920000076293938 L -1.468999981880188 29.82399940490722 L -1.8580000400543213 29.76700019836425 L -2.25 29.747999191284173 L -2.6419999599456787 29.76700019836425 L -3.0309998989105225 29.82399940490722 L -3.4119999408721924 29.920000076293938 L -3.7820000648498535 30.05200004577636 L -4.0960001945495605 30.200597763061516 L -4.13700008392334 30.219999313354485 L -4.473999977111816 30.42200088500976 L -4.789000034332275 30.656000137329094 L -5.079999923706055 30.920000076293938 L -5.343999862670898 31.211000442504876 L -5.578000068664551 31.52599906921386 L -5.78000020980835 31.86300086975097 L -5.947999954223633 32.217998504638665 L -6.079999923706055 32.588001251220696 L -6.125354290008545 32.76800155639648 L -6.176000118255615 32.969001770019524 L -6.232999801635742 33.35800170898437 L -6.252999782562256 33.74999999999999 L -6.232999801635742 34.14199829101562 L -6.176000118255615 34.53099822998046 L -6.079999923706055 34.91199874877929 L -5.947999954223633 35.28200149536132 L -5.78000020980835 35.63700103759765 L -5.578000068664551 35.97399902343749 L -5.343999862670898 36.28900146484374 L -5.079999923706055 36.58000183105468 L -4.789000034332275 36.844001770019524 L -4.473999977111816 37.07799911499023 L -4.13700008392334 37.27999877929687 M -4.13700008392334 22.280000686645504 L -4.0960001945495605 22.299402236938473 L -3.7820000648498535 22.44799995422363 L -3.4119999408721924 22.57999992370605 L -3.0309998989105225 22.67600059509277 L -2.6419999599456787 22.73299980163574 L -2.25 22.75300025939941 L -1.8580000400543213 22.73299980163574 L -1.468999981880188 22.67600059509277 L -1.0880000591278076 22.57999992370605 L -0.7179999947547913 22.44799995422363 L -0.3630000054836273 22.280000686645504 L -0.026000000536441803 22.07799911499023 L 4.477512297425745e-15 22.05868530273437 L 0.289000004529953 21.843999862670895 L 0.5799999833106995 21.57999992370605 L 0.843999981880188 21.288999557495114 L 1.0779999494552612 20.97400093078613 L 1.2799999713897705 20.63699913024902 L 1.3542985916137695 20.479999542236325 L 1.4479999542236328 20.28199958801269 L 1.5800000429153442 19.912000656127926 L 1.6759999990463257 19.531000137329098 L 1.7330000400543213 19.142000198364254 L 1.753000020980835 18.749999999999996 L 1.7330000400543213 18.35799980163574 L 1.6759999990463257 17.968999862670895 L 1.5800000429153442 17.587999343872067 L 1.4479999542236328 17.2180004119873 L 1.2799999713897705 16.863000869750973 L 1.0779999494552612 16.525999069213864 L 0.972514271736145 16.38400077819824 L 0.843999981880188 16.21100044250488 L 0.5799999833106995 15.920000076293942 L 0.289000004529953 15.656000137329098 L 0 15.441314697265621 L -0.026000000536441803 15.421999931335446 L -0.3630000054836273 15.220000267028805 L -0.7179999947547913 15.052000045776364 L -1.0880000591278076 14.920000076293942 L -1.468999981880188 14.82400035858154 L -1.8580000400543213 14.767000198364254 L -2.25 14.748000144958493 L -2.6419999599456787 14.767000198364254 L -3.0309998989105225 14.82400035858154 L -3.4119999408721924 14.920000076293942 L -3.7820000648498535 15.052000045776364 L -4.0960001945495605 15.200596809387203 L -4.13700008392334 15.220000267028805 L -4.473999977111816 15.421999931335446 L -4.789000034332275 15.656000137329098 L -5.079999923706055 15.920000076293942 L -5.343999862670898 16.21100044250488 L -5.4725141525268555 16.38400077819824 L -5.578000068664551 16.525999069213864 L -5.78000020980835 16.863000869750973 L -5.947999954223633 17.2180004119873 L -6.079999923706055 17.587999343872067 L -6.176000118255615 17.968999862670895 L -6.232999801635742 18.35799980163574 L -6.252999782562256 18.749999999999996 L -6.232999801635742 19.142000198364254 L -6.176000118255615 19.531000137329098 L -6.079999923706055 19.912000656127926 L -5.947999954223633 20.28199958801269 L -5.8542985916137695 20.479999542236325 L -5.78000020980835 20.63699913024902 L -5.578000068664551 20.97400093078613 L -5.343999862670898 21.288999557495114 L -5.079999923706055 21.57999992370605 L -4.789000034332275 21.843999862670895 L -4.473999977111816 22.07799911499023 L -4.13700008392334 22.280000686645504 M -4.13700008392334 7.280000209808348 L -4.0960001945495605 7.299402713775633 L -3.7820000648498535 7.447999954223631 L -3.4119999408721924 7.579999923706053 L -3.0309998989105225 7.6760001182556135 L -2.6419999599456787 7.73299980163574 L -2.25 7.752999782562254 L -1.8580000400543213 7.73299980163574 L -1.468999981880188 7.6760001182556135 L -1.0880000591278076 7.579999923706053 L -0.7179999947547913 7.447999954223631 L -0.3630000054836273 7.280000209808348 L -0.026000000536441803 7.078000068664549 L 1.1193780743564362e-15 7.058685779571531 L 0.289000004529953 6.843999862670897 L 0.5799999833106995 6.579999923706053 L 0.843999981880188 6.289000034332274 L 1.0779999494552612 5.9739999771118155 L 1.2799999713897705 5.637000083923339 L 1.4479999542236328 5.282000064849853 L 1.5800000429153442 4.912000179290771 L 1.6759999990463257 4.531000137329101 L 1.7330000400543213 4.142000198364257 L 1.7353469133377075 4.09600019454956 L 1.753000020980835 3.749999999999999 L 1.7330000400543213 3.3580000400543204 L 1.6759999990463257 2.969000101089477 L 1.5800000429153442 2.588000059127807 L 1.4479999542236328 2.217999935150146 L 1.2799999713897705 1.8630000352859493 L 1.0779999494552612 1.5260000228881831 L 0.843999981880188 1.2109999656677246 L 0.5799999833106995 0.9200000166893004 L 0.289000004529953 0.656000018119812 L -6.996112964727726e-17 0.4413142800331116 L -0.026000000536441803 0.421999990940094 L -0.3630000054836273 0.21999999880790716 L -0.7179999947547913 0.0520000010728837 L -0.8637575507164001 1.1102230246251565e-16 L -1.0880000591278076 -0.07999999821186053 L -1.468999981880188 -0.17599999904632554 L -1.8580000400543213 -0.23299999535083754 L -2.25 -0.2529999911785124 L -2.6419999599456787 -0.23299999535083754 L -3.0309998989105225 -0.17599999904632554 L -3.4119999408721924 -0.07999999821186053 L -3.636242389678955 1.1102230246251565e-16 L -3.7820000648498535 0.0520000010728837 L -4.0960001945495605 0.20059718191623693 L -4.13700008392334 0.21999999880790716 L -4.473999977111816 0.421999990940094 L -4.789000034332275 0.656000018119812 L -5.079999923706055 0.9200000166893004 L -5.343999862670898 1.2109999656677246 L -5.578000068664551 1.5260000228881831 L -5.78000020980835 1.8630000352859493 L -5.947999954223633 2.217999935150146 L -6.079999923706055 2.588000059127807 L -6.176000118255615 2.969000101089477 L -6.232999801635742 3.3580000400543204 L -6.252999782562256 3.749999999999999 L -6.235346794128418 4.09600019454956 L -6.232999801635742 4.142000198364257 L -6.176000118255615 4.531000137329101 L -6.079999923706055 4.912000179290771 L -5.947999954223633 5.282000064849853 L -5.78000020980835 5.637000083923339 L -5.578000068664551 5.9739999771118155 L -5.343999862670898 6.289000034332274 L -5.079999923706055 6.579999923706053 L -4.789000034332275 6.843999862670897 L -4.473999977111816 7.078000068664549 L -4.13700008392334 7.280000209808348 M -2.6419999599456787 -7.267000198364256 L -2.25 -7.248000144958494 L -1.8580000400543213 -7.267000198364256 L -1.468999981880188 -7.323999881744383 L -1.0880000591278076 -7.4200000762939435 L -0.7179999947547913 -7.552000045776365 L -0.3630000054836273 -7.719999790191649 L -0.026000000536441803 -7.921999931335447 L -2.2387561487128725e-15 -7.941314220428465 L 0.289000004529953 -8.1560001373291 L 0.3286818265914917 -8.19200038909912 L 0.5799999833106995 -8.420000076293944 L 0.843999981880188 -8.711000442504881 L 1.0779999494552612 -9.026000022888182 L 1.2799999713897705 -9.362999916076658 L 1.4479999542236328 -9.718000411987303 L 1.5800000429153442 -10.088000297546385 L 1.6759999990463257 -10.468999862670897 L 1.7330000400543213 -10.85799980163574 L 1.753000020980835 -11.249999999999998 L 1.7330000400543213 -11.642000198364256 L 1.6759999990463257 -12.031000137329098 L 1.6112440824508667 -12.28800010681152 L 1.5800000429153442 -12.41199970245361 L 1.4479999542236328 -12.781999588012692 L 1.2799999713897705 -13.137000083923336 L 1.0779999494552612 -13.473999977111813 L 0.843999981880188 -13.788999557495114 L 0.5799999833106995 -14.079999923706051 L 0.289000004529953 -14.343999862670895 L 2.2387561487128725e-15 -14.558685302734371 L -0.026000000536441803 -14.578000068664547 L -0.3630000054836273 -14.779999732971188 L -0.7179999947547913 -14.94799995422363 L -1.0880000591278076 -15.079999923706051 L -1.468999981880188 -15.175999641418453 L -1.8580000400543213 -15.232999801635739 L -2.25 -15.25300025939941 L -2.6419999599456787 -15.232999801635739 L -3.0309998989105225 -15.175999641418453 L -3.4119999408721924 -15.079999923706051 L -3.7820000648498535 -14.94799995422363 L -4.0960001945495605 -14.79940319061279 L -4.13700008392334 -14.779999732971188 L -4.473999977111816 -14.578000068664547 L -4.789000034332275 -14.343999862670895 L -5.079999923706055 -14.079999923706051 L -5.343999862670898 -13.788999557495114 L -5.578000068664551 -13.473999977111813 L -5.78000020980835 -13.137000083923336 L -5.947999954223633 -12.781999588012692 L -6.079999923706055 -12.41199970245361 L -6.111244201660156 -12.28800010681152 L -6.176000118255615 -12.031000137329098 L -6.232999801635742 -11.642000198364256 L -6.252999782562256 -11.249999999999998 L -6.232999801635742 -10.85799980163574 L -6.176000118255615 -10.468999862670897 L -6.079999923706055 -10.088000297546385 L -5.947999954223633 -9.718000411987303 L -5.78000020980835 -9.362999916076658 L -5.578000068664551 -9.026000022888182 L -5.343999862670898 -8.711000442504881 L -5.079999923706055 -8.420000076293944 L -4.828681945800781 -8.19200038909912 L -4.789000034332275 -8.1560001373291 L -4.473999977111816 -7.921999931335447 L -4.13700008392334 -7.719999790191649 L -3.7820000648498535 -7.552000045776365 L -3.4119999408721924 -7.4200000762939435 L -3.0309998989105225 -7.323999881744383 L -2.6419999599456787 -7.267000198364256 M -4.13700008392334 -22.71999931335449 L -4.0960001945495605 -22.70059776306152 L -3.7820000648498535 -22.552000045776364 L -3.4119999408721924 -22.42000007629394 L -3.0309998989105225 -22.323999404907223 L -2.6419999599456787 -22.267000198364254 L -2.25 -22.247999191284176 L -1.8580000400543213 -22.267000198364254 L -1.468999981880188 -22.323999404907223 L -1.0880000591278076 -22.42000007629394 L -0.7179999947547913 -22.552000045776364 L -0.3630000054836273 -22.71999931335449 L -0.026000000536441803 -22.922000885009762 L 0 -22.94131469726562 L 0.289000004529953 -23.156000137329098 L 0.5799999833106995 -23.42000007629394 L 0.843999981880188 -23.71100044250488 L 1.0779999494552612 -24.02599906921386 L 1.2799999713897705 -24.36300086975097 L 1.3808000087738037 -24.57600021362304 L 1.4479999542236328 -24.718000411987298 L 1.5800000429153442 -25.087999343872063 L 1.6759999990463257 -25.46899986267089 L 1.7330000400543213 -25.857999801635735 L 1.753000020980835 -26.249999999999993 L 1.7330000400543213 -26.64200019836425 L 1.6759999990463257 -27.031000137329094 L 1.5800000429153442 -27.412000656127923 L 1.4479999542236328 -27.781999588012688 L 1.2799999713897705 -28.136999130249016 L 1.0779999494552612 -28.474000930786126 L 0.843999981880188 -28.78899955749511 L 0.5799999833106995 -29.079999923706048 L 0.289000004529953 -29.34399986267089 L 4.477512297425745e-15 -29.558685302734368 L -0.026000000536441803 -29.577999114990227 L -0.3630000054836273 -29.7800006866455 L -0.7179999947547913 -29.947999954223626 L -1.0880000591278076 -30.079999923706048 L -1.468999981880188 -30.176000595092766 L -1.8580000400543213 -30.232999801635735 L -2.25 -30.253000259399407 L -2.6419999599456787 -30.232999801635735 L -3.0309998989105225 -30.176000595092766 L -3.4119999408721924 -30.079999923706048 L -3.7820000648498535 -29.947999954223626 L -4.0960001945495605 -29.79940223693847 L -4.13700008392334 -29.7800006866455 L -4.473999977111816 -29.577999114990227 L -4.789000034332275 -29.34399986267089 L -5.079999923706055 -29.079999923706048 L -5.343999862670898 -28.78899955749511 L -5.430914402008057 -28.67200088500976 L -5.578000068664551 -28.474000930786126 L -5.78000020980835 -28.136999130249016 L -5.947999954223633 -27.781999588012688 L -6.079999923706055 -27.412000656127923 L -6.176000118255615 -27.031000137329094 L -6.232999801635742 -26.64200019836425 L -6.252999782562256 -26.249999999999993 L -6.232999801635742 -25.857999801635735 L -6.176000118255615 -25.46899986267089 L -6.079999923706055 -25.087999343872063 L -5.947999954223633 -24.718000411987298 L -5.880799770355225 -24.57600021362304 L -5.78000020980835 -24.36300086975097 L -5.578000068664551 -24.02599906921386 L -5.343999862670898 -23.71100044250488 L -5.079999923706055 -23.42000007629394 L -4.789000034332275 -23.156000137329098 L -4.473999977111816 -22.922000885009762 L -4.13700008392334 -22.71999931335449 M -4.13700008392334 -37.72000122070312 L -4.0960001945495605 -37.70059585571288 L -3.7820000648498535 -37.55199813842773 L -3.4119999408721924 -37.419998168945305 L -3.0309998989105225 -37.32400131225585 L -2.6419999599456787 -37.26699829101562 L -2.25 -37.248001098632805 L -1.8580000400543213 -37.26699829101562 L -1.468999981880188 -37.32400131225585 L -1.0880000591278076 -37.419998168945305 L -0.7179999947547913 -37.55199813842773 L -0.3630000054836273 -37.72000122070312 L -0.026000000536441803 -37.92200088500976 L -8.95502459485149e-15 -37.94131469726562 L 0.289000004529953 -38.15599822998046 L 0.5799999833106995 -38.419998168945305 L 0.843999981880188 -38.71099853515624 L 1.0779999494552612 -39.02600097656249 L 1.2799999713897705 -39.36299896240234 L 1.4479999542236328 -39.717998504638665 L 1.5800000429153442 -40.088001251220696 L 1.6759999990463257 -40.469001770019524 L 1.7330000400543213 -40.85800170898437 L 1.7382041215896606 -40.95999908447265 L 1.753000020980835 -41.24999999999999 L 1.7330000400543213 -41.64199829101562 L 1.6759999990463257 -42.03099822998046 L 1.5800000429153442 -42.41199874877929 L 1.4479999542236328 -42.78200149536132 L 1.2799999713897705 -43.13700103759765 L 1.0779999494552612 -43.47399902343749 L 0.843999981880188 -43.78900146484374 L 0.5799999833106995 -44.08000183105468 L 0.289000004529953 -44.344001770019524 L 8.95502459485149e-15 -44.55868530273437 L -0.026000000536441803 -44.57799911499023 L -0.3630000054836273 -44.77999877929687 L -0.7179999947547913 -44.94800186157226 L -1.0880000591278076 -45.08000183105468 L -1.468999981880188 -45.17599868774413 L -1.8580000400543213 -45.23300170898437 L -2.25 -45.252998352050774 L -2.6419999599456787 -45.23300170898437 L -3.0309998989105225 -45.17599868774413 L -3.4119999408721924 -45.08000183105468 L -3.7820000648498535 -44.94800186157226 L -4.0960001945495605 -44.7994041442871 L -4.13700008392334 -44.77999877929687 L -4.473999977111816 -44.57799911499023 L -4.789000034332275 -44.344001770019524 L -5.079999923706055 -44.08000183105468 L -5.343999862670898 -43.78900146484374 L -5.578000068664551 -43.47399902343749 L -5.78000020980835 -43.13700103759765 L -5.947999954223633 -42.78200149536132 L -6.079999923706055 -42.41199874877929 L -6.176000118255615 -42.03099822998046 L -6.232999801635742 -41.64199829101562 L -6.252999782562256 -41.24999999999999 L -6.238204002380371 -40.95999908447265 L -6.232999801635742 -40.85800170898437 L -6.176000118255615 -40.469001770019524 L -6.079999923706055 -40.088001251220696 L -5.947999954223633 -39.717998504638665 L -5.78000020980835 -39.36299896240234 L -5.578000068664551 -39.02600097656249 L -5.343999862670898 -38.71099853515624 L -5.079999923706055 -38.419998168945305 L -4.789000034332275 -38.15599822998046 L -4.473999977111816 -37.92200088500976 L -4.13700008392334 -37.72000122070312 M -32.84400177001953 36.28900146484374 L -32.768001556396484 36.37277221679687 L -32.58000183105469 36.58000183105468 L -32.28900146484375 36.844001770019524 L -31.974000930786133 37.07799911499023 L -31.636999130249023 37.27999877929687 L -31.281999588012695 37.44800186157226 L -30.91200065612793 37.58000183105468 L -30.5310001373291 37.67599868774413 L -30.142000198364258 37.73300170898437 L -29.75 37.752998352050774 L -29.357999801635742 37.73300170898437 L -28.9689998626709 37.67599868774413 L -28.672000885009766 37.60116577148437 L -28.58799934387207 37.58000183105468 L -28.218000411987305 37.44800186157226 L -27.863000869750977 37.27999877929687 L -27.525999069213867 37.07799911499023 L -27.23792266845703 36.86399841308593 L -27.211000442504883 36.844001770019524 L -26.920000076293945 36.58000183105468 L -26.6560001373291 36.28900146484374 L -26.422000885009766 35.97399902343749 L -26.219999313354492 35.63700103759765 L -26.052000045776367 35.28200149536132 L -25.920000076293945 34.91199874877929 L -25.823999404907227 34.53099822998046 L -25.767000198364258 34.14199829101562 L -25.74799919128418 33.74999999999999 L -25.767000198364258 33.35800170898437 L -25.823999404907227 32.969001770019524 L -25.874645233154297 32.76800155639648 L -25.920000076293945 32.588001251220696 L -26.052000045776367 32.217998504638665 L -26.219999313354492 31.86300086975097 L -26.422000885009766 31.52599906921386 L -26.6560001373291 31.211000442504876 L -26.920000076293945 30.920000076293938 L -27.211000442504883 30.656000137329094 L -27.525999069213867 30.42200088500976 L -27.863000869750977 30.219999313354485 L -28.218000411987305 30.05200004577636 L -28.58799934387207 29.920000076293938 L -28.672000885009766 29.898834228515618 L -28.9689998626709 29.82399940490722 L -29.357999801635742 29.76700019836425 L -29.75 29.747999191284173 L -30.142000198364258 29.76700019836425 L -30.5310001373291 29.82399940490722 L -30.91200065612793 29.920000076293938 L -31.281999588012695 30.05200004577636 L -31.636999130249023 30.219999313354485 L -31.974000930786133 30.42200088500976 L -32.28900146484375 30.656000137329094 L -32.58000183105469 30.920000076293938 L -32.768001556396484 31.127227783203118 L -32.84400177001953 31.211000442504876 L -33.077999114990234 31.52599906921386 L -33.279998779296875 31.86300086975097 L -33.448001861572266 32.217998504638665 L -33.58000183105469 32.588001251220696 L -33.6253547668457 32.76800155639648 L -33.67599868774414 32.969001770019524 L -33.733001708984375 33.35800170898437 L -33.75299835205078 33.74999999999999 L -33.733001708984375 34.14199829101562 L -33.67599868774414 34.53099822998046 L -33.58000183105469 34.91199874877929 L -33.448001861572266 35.28200149536132 L -33.279998779296875 35.63700103759765 L -33.077999114990234 35.97399902343749 L -32.84400177001953 36.28900146484374 M -32.84400177001953 21.288999557495114 L -32.768001556396484 21.37277221679687 L -32.58000183105469 21.57999992370605 L -32.28900146484375 21.843999862670895 L -31.974000930786133 22.07799911499023 L -31.636999130249023 22.280000686645504 L -31.281999588012695 22.44799995422363 L -30.91200065612793 22.57999992370605 L -30.5310001373291 22.67600059509277 L -30.142000198364258 22.73299980163574 L -29.75 22.75300025939941 L -29.357999801635742 22.73299980163574 L -28.9689998626709 22.67600059509277 L -28.672000885009766 22.60116577148437 L -28.58799934387207 22.57999992370605 L -28.218000411987305 22.44799995422363 L -27.863000869750977 22.280000686645504 L -27.525999069213867 22.07799911499023 L -27.211000442504883 21.843999862670895 L -26.920000076293945 21.57999992370605 L -26.6560001373291 21.288999557495114 L -26.422000885009766 20.97400093078613 L -26.219999313354492 20.63699913024902 L -26.145702362060547 20.479999542236325 L -26.052000045776367 20.28199958801269 L -25.920000076293945 19.912000656127926 L -25.823999404907227 19.531000137329098 L -25.767000198364258 19.142000198364254 L -25.74799919128418 18.749999999999996 L -25.767000198364258 18.35799980163574 L -25.823999404907227 17.968999862670895 L -25.920000076293945 17.587999343872067 L -26.052000045776367 17.2180004119873 L -26.219999313354492 16.863000869750973 L -26.422000885009766 16.525999069213864 L -26.527484893798828 16.38400077819824 L -26.6560001373291 16.21100044250488 L -26.920000076293945 15.920000076293942 L -27.211000442504883 15.656000137329098 L -27.525999069213867 15.421999931335446 L -27.863000869750977 15.220000267028805 L -28.218000411987305 15.052000045776364 L -28.58799934387207 14.920000076293942 L -28.672000885009766 14.898834228515621 L -28.9689998626709 14.82400035858154 L -29.357999801635742 14.767000198364254 L -29.75 14.748000144958493 L -30.142000198364258 14.767000198364254 L -30.5310001373291 14.82400035858154 L -30.91200065612793 14.920000076293942 L -31.281999588012695 15.052000045776364 L -31.636999130249023 15.220000267028805 L -31.974000930786133 15.421999931335446 L -32.28900146484375 15.656000137329098 L -32.58000183105469 15.920000076293942 L -32.768001556396484 16.12722778320312 L -32.84400177001953 16.21100044250488 L -32.97251510620117 16.38400077819824 L -33.077999114990234 16.525999069213864 L -33.279998779296875 16.863000869750973 L -33.448001861572266 17.2180004119873 L -33.58000183105469 17.587999343872067 L -33.67599868774414 17.968999862670895 L -33.733001708984375 18.35799980163574 L -33.75299835205078 18.749999999999996 L -33.733001708984375 19.142000198364254 L -33.67599868774414 19.531000137329098 L -33.58000183105469 19.912000656127926 L -33.448001861572266 20.28199958801269 L -33.279998779296875 20.63699913024902 L -33.077999114990234 20.97400093078613 L -32.84400177001953 21.288999557495114 M -32.84400177001953 6.289000034332274 L -32.768001556396484 6.372772693634031 L -32.58000183105469 6.579999923706053 L -32.28900146484375 6.843999862670897 L -31.974000930786133 7.078000068664549 L -31.636999130249023 7.280000209808348 L -31.281999588012695 7.447999954223631 L -30.91200065612793 7.579999923706053 L -30.5310001373291 7.6760001182556135 L -30.142000198364258 7.73299980163574 L -29.75 7.752999782562254 L -29.357999801635742 7.73299980163574 L -28.9689998626709 7.6760001182556135 L -28.672000885009766 7.601165294647215 L -28.58799934387207 7.579999923706053 L -28.218000411987305 7.447999954223631 L -27.863000869750977 7.280000209808348 L -27.525999069213867 7.078000068664549 L -27.211000442504883 6.843999862670897 L -26.920000076293945 6.579999923706053 L -26.6560001373291 6.289000034332274 L -26.422000885009766 5.9739999771118155 L -26.219999313354492 5.637000083923339 L -26.052000045776367 5.282000064849853 L -25.920000076293945 4.912000179290771 L -25.823999404907227 4.531000137329101 L -25.767000198364258 4.142000198364257 L -25.7647705078125 4.09600019454956 L -25.74799919128418 3.749999999999999 L -25.767000198364258 3.3580000400543204 L -25.823999404907227 2.969000101089477 L -25.920000076293945 2.588000059127807 L -26.052000045776367 2.217999935150146 L -26.219999313354492 1.8630000352859493 L -26.422000885009766 1.5260000228881831 L -26.6560001373291 1.2109999656677246 L -26.920000076293945 0.9200000166893004 L -27.211000442504883 0.656000018119812 L -27.525999069213867 0.421999990940094 L -27.863000869750977 0.21999999880790716 L -28.218000411987305 0.0520000010728837 L -28.363758087158203 1.1102230246251565e-16 L -28.58799934387207 -0.07999999821186053 L -28.9689998626709 -0.17599999904632554 L -29.357999801635742 -0.23299999535083754 L -29.75 -0.2529999911785124 L -30.142000198364258 -0.23299999535083754 L -30.5310001373291 -0.17599999904632554 L -30.91200065612793 -0.07999999821186053 L -31.136241912841797 1.1102230246251565e-16 L -31.281999588012695 0.0520000010728837 L -31.636999130249023 0.21999999880790716 L -31.974000930786133 0.421999990940094 L -32.28900146484375 0.656000018119812 L -32.58000183105469 0.9200000166893004 L -32.768001556396484 1.1272273063659668 L -32.84400177001953 1.2109999656677246 L -33.077999114990234 1.5260000228881831 L -33.279998779296875 1.8630000352859493 L -33.448001861572266 2.217999935150146 L -33.58000183105469 2.588000059127807 L -33.67599868774414 2.969000101089477 L -33.733001708984375 3.3580000400543204 L -33.75299835205078 3.749999999999999 L -33.733001708984375 4.142000198364257 L -33.67599868774414 4.531000137329101 L -33.58000183105469 4.912000179290771 L -33.448001861572266 5.282000064849853 L -33.279998779296875 5.637000083923339 L -33.077999114990234 5.9739999771118155 L -32.84400177001953 6.289000034332274 M -30.142000198364258 -7.267000198364256 L -29.75 -7.248000144958494 L -29.357999801635742 -7.267000198364256 L -28.9689998626709 -7.323999881744383 L -28.58799934387207 -7.4200000762939435 L -28.218000411987305 -7.552000045776365 L -27.863000869750977 -7.719999790191649 L -27.525999069213867 -7.921999931335447 L -27.211000442504883 -8.1560001373291 L -27.17131805419922 -8.19200038909912 L -26.920000076293945 -8.420000076293944 L -26.6560001373291 -8.711000442504881 L -26.422000885009766 -9.026000022888182 L -26.219999313354492 -9.362999916076658 L -26.052000045776367 -9.718000411987303 L -25.920000076293945 -10.088000297546385 L -25.823999404907227 -10.468999862670897 L -25.767000198364258 -10.85799980163574 L -25.74799919128418 -11.249999999999998 L -25.767000198364258 -11.642000198364256 L -25.823999404907227 -12.031000137329098 L -25.888755798339844 -12.28800010681152 L -25.920000076293945 -12.41199970245361 L -26.052000045776367 -12.781999588012692 L -26.219999313354492 -13.137000083923336 L -26.422000885009766 -13.473999977111813 L -26.6560001373291 -13.788999557495114 L -26.920000076293945 -14.079999923706051 L -27.211000442504883 -14.343999862670895 L -27.525999069213867 -14.578000068664547 L -27.863000869750977 -14.779999732971188 L -28.218000411987305 -14.94799995422363 L -28.58799934387207 -15.079999923706051 L -28.672000885009766 -15.101165771484371 L -28.9689998626709 -15.175999641418453 L -29.357999801635742 -15.232999801635739 L -29.75 -15.25300025939941 L -30.142000198364258 -15.232999801635739 L -30.5310001373291 -15.175999641418453 L -30.91200065612793 -15.079999923706051 L -31.281999588012695 -14.94799995422363 L -31.636999130249023 -14.779999732971188 L -31.974000930786133 -14.578000068664547 L -32.28900146484375 -14.343999862670895 L -32.58000183105469 -14.079999923706051 L -32.768001556396484 -13.872773170471188 L -32.84400177001953 -13.788999557495114 L -33.077999114990234 -13.473999977111813 L -33.279998779296875 -13.137000083923336 L -33.448001861572266 -12.781999588012692 L -33.58000183105469 -12.41199970245361 L -33.67599868774414 -12.031000137329098 L -33.733001708984375 -11.642000198364256 L -33.75299835205078 -11.249999999999998 L -33.733001708984375 -10.85799980163574 L -33.67599868774414 -10.468999862670897 L -33.58000183105469 -10.088000297546385 L -33.448001861572266 -9.718000411987303 L -33.279998779296875 -9.362999916076658 L -33.077999114990234 -9.026000022888182 L -32.84400177001953 -8.711000442504881 L -32.768001556396484 -8.627226829528807 L -32.58000183105469 -8.420000076293944 L -32.32868194580078 -8.19200038909912 L -32.28900146484375 -8.1560001373291 L -31.974000930786133 -7.921999931335447 L -31.636999130249023 -7.719999790191649 L -31.281999588012695 -7.552000045776365 L -30.91200065612793 -7.4200000762939435 L -30.5310001373291 -7.323999881744383 L -30.142000198364258 -7.267000198364256 M -32.84400177001953 -23.71100044250488 L -32.768001556396484 -23.62722778320312 L -32.58000183105469 -23.42000007629394 L -32.28900146484375 -23.156000137329098 L -31.974000930786133 -22.922000885009762 L -31.636999130249023 -22.71999931335449 L -31.281999588012695 -22.552000045776364 L -30.91200065612793 -22.42000007629394 L -30.5310001373291 -22.323999404907223 L -30.142000198364258 -22.267000198364254 L -29.75 -22.247999191284176 L -29.357999801635742 -22.267000198364254 L -28.9689998626709 -22.323999404907223 L -28.672000885009766 -22.39883422851562 L -28.58799934387207 -22.42000007629394 L -28.218000411987305 -22.552000045776364 L -27.863000869750977 -22.71999931335449 L -27.525999069213867 -22.922000885009762 L -27.211000442504883 -23.156000137329098 L -26.920000076293945 -23.42000007629394 L -26.6560001373291 -23.71100044250488 L -26.422000885009766 -24.02599906921386 L -26.219999313354492 -24.36300086975097 L -26.119199752807617 -24.57600021362304 L -26.052000045776367 -24.718000411987298 L -25.920000076293945 -25.087999343872063 L -25.823999404907227 -25.46899986267089 L -25.767000198364258 -25.857999801635735 L -25.74799919128418 -26.249999999999993 L -25.767000198364258 -26.64200019836425 L -25.823999404907227 -27.031000137329094 L -25.920000076293945 -27.412000656127923 L -26.052000045776367 -27.781999588012688 L -26.219999313354492 -28.136999130249016 L -26.422000885009766 -28.474000930786126 L -26.5690860748291 -28.67200088500976 L -26.6560001373291 -28.78899955749511 L -26.920000076293945 -29.079999923706048 L -27.211000442504883 -29.34399986267089 L -27.525999069213867 -29.577999114990227 L -27.863000869750977 -29.7800006866455 L -28.218000411987305 -29.947999954223626 L -28.58799934387207 -30.079999923706048 L -28.672000885009766 -30.101165771484368 L -28.9689998626709 -30.176000595092766 L -29.357999801635742 -30.232999801635735 L -29.75 -30.253000259399407 L -30.142000198364258 -30.232999801635735 L -30.5310001373291 -30.176000595092766 L -30.91200065612793 -30.079999923706048 L -31.281999588012695 -29.947999954223626 L -31.636999130249023 -29.7800006866455 L -31.974000930786133 -29.577999114990227 L -32.28900146484375 -29.34399986267089 L -32.58000183105469 -29.079999923706048 L -32.768001556396484 -28.872772216796868 L -32.84400177001953 -28.78899955749511 L -33.077999114990234 -28.474000930786126 L -33.279998779296875 -28.136999130249016 L -33.448001861572266 -27.781999588012688 L -33.58000183105469 -27.412000656127923 L -33.67599868774414 -27.031000137329094 L -33.733001708984375 -26.64200019836425 L -33.75299835205078 -26.249999999999993 L -33.733001708984375 -25.857999801635735 L -33.67599868774414 -25.46899986267089 L -33.58000183105469 -25.087999343872063 L -33.448001861572266 -24.718000411987298 L -33.38079833984375 -24.57600021362304 L -33.279998779296875 -24.36300086975097 L -33.077999114990234 -24.02599906921386 L -32.84400177001953 -23.71100044250488 M -32.84400177001953 -38.71099853515624 L -32.768001556396484 -38.62722778320312 L -32.58000183105469 -38.419998168945305 L -32.28900146484375 -38.15599822998046 L -31.974000930786133 -37.92200088500976 L -31.636999130249023 -37.72000122070312 L -31.281999588012695 -37.55199813842773 L -30.91200065612793 -37.419998168945305 L -30.5310001373291 -37.32400131225585 L -30.142000198364258 -37.26699829101562 L -29.75 -37.248001098632805 L -29.357999801635742 -37.26699829101562 L -28.9689998626709 -37.32400131225585 L -28.672000885009766 -37.39883422851562 L -28.58799934387207 -37.419998168945305 L -28.218000411987305 -37.55199813842773 L -27.863000869750977 -37.72000122070312 L -27.525999069213867 -37.92200088500976 L -27.211000442504883 -38.15599822998046 L -26.920000076293945 -38.419998168945305 L -26.6560001373291 -38.71099853515624 L -26.422000885009766 -39.02600097656249 L -26.219999313354492 -39.36299896240234 L -26.052000045776367 -39.717998504638665 L -25.920000076293945 -40.088001251220696 L -25.823999404907227 -40.469001770019524 L -25.767000198364258 -40.85800170898437 L -25.762056350708008 -40.95999908447265 L -25.74799919128418 -41.24999999999999 L -25.767000198364258 -41.64199829101562 L -25.823999404907227 -42.03099822998046 L -25.920000076293945 -42.41199874877929 L -26.052000045776367 -42.78200149536132 L -26.219999313354492 -43.13700103759765 L -26.422000885009766 -43.47399902343749 L -26.6560001373291 -43.78900146484374 L -26.920000076293945 -44.08000183105468 L -27.211000442504883 -44.344001770019524 L -27.525999069213867 -44.57799911499023 L -27.863000869750977 -44.77999877929687 L -28.218000411987305 -44.94800186157226 L -28.58799934387207 -45.08000183105468 L -28.672000885009766 -45.10116577148437 L -28.9689998626709 -45.17599868774413 L -29.357999801635742 -45.23300170898437 L -29.75 -45.252998352050774 L -30.142000198364258 -45.23300170898437 L -30.5310001373291 -45.17599868774413 L -30.91200065612793 -45.08000183105468 L -31.281999588012695 -44.94800186157226 L -31.636999130249023 -44.77999877929687 L -31.974000930786133 -44.57799911499023 L -32.28900146484375 -44.344001770019524 L -32.58000183105469 -44.08000183105468 L -32.768001556396484 -43.87277221679687 L -32.84400177001953 -43.78900146484374 L -33.077999114990234 -43.47399902343749 L -33.279998779296875 -43.13700103759765 L -33.448001861572266 -42.78200149536132 L -33.58000183105469 -42.41199874877929 L -33.67599868774414 -42.03099822998046 L -33.733001708984375 -41.64199829101562 L -33.75299835205078 -41.24999999999999 L -33.73820495605469 -40.95999908447265 L -33.733001708984375 -40.85800170898437 L -33.67599868774414 -40.469001770019524 L -33.58000183105469 -40.088001251220696 L -33.448001861572266 -39.717998504638665 L -33.279998779296875 -39.36299896240234 L -33.077999114990234 -39.02600097656249 L -32.84400177001953 -38.71099853515624 z" fill="none" stroke="rgb(255,0,0)" stroke-width="0.001mm" />
</svg>