<?xml version="1.0" standalone="no"?>
<!DOCTYPE svg PUBLIC "-//W3C//DTD SVG 1.1//EN"
  "http://www.w3.org/Graphics/SVG/1.1/DTD/svg11.dtd">
<svg width="87mm" height="86.99999999999997mm" viewBox="-45 -24.999999999999993 87 86.99999999999997" xmlns="http://www.w3.org/2000/svg" version="1.1">
	<title>svgOutput</title>
	<desc>made with tinkercad</desc>
<path d="M -31.5 48.499999999999986 L -31.5 -11.499999999999998 L -26.503000259399414 -11.499999999999998 L 23.503000259399414 -11.499999999999998 L 28.5 -11.499999999999998 L 28.5 48.499999999999986 L 23.503000259399414 48.499999999999986 L -26.503000259399414 48.499999999999986 L -31.5 48.499999999999986 M -31.5 -12.75300025939941 L -32.75199890136719 -12.75300025939941 L -32.75199890136719 49.75299835205077 L -31.5 49.75299835205077 L 28.5 49.75299835205077 L 29.753000259399414 49.75299835205077 L 29.753000259399414 -12.75300025939941 L 28.5 -12.75300025939941 L -31.5 -12.75300025939941 M -37.75 54.749999999999986 L -37.75 -17.749999999999996 L -32.75199890136719 -17.749999999999996 L 29.753000259399414 -17.749999999999996 L 34.75 -17.749999999999996 L 34.75 54.749999999999986 L 29.753000259399414 54.749999999999986 L -32.75199890136719 54.749999999999986 L -37.75 54.749999999999986 M -37.75 -19.00300025939941 L -39.00299835205078 -19.00300025939941 L -39.00299835205078 56.00299835205077 L -37.75 56.00299835205077 L 34.75 56.00299835205077 L 36.00299835205078 56.00299835205077 L 36.00299835205078 -19.00300025939941 L 34.75 -19.00300025939941 L -37.75 -19.00300025939941 M -44 60.999999999999986 L -44 -23.999999999999993 L -39.00299835205078 -23.999999999999993 L 36.00299835205078 -23.999999999999993 L 41 -23.999999999999993 L 41 60.999999999999986 L 36.00299835205078 60.999999999999986 L -39.00299835205078 60.999999999999986 L -44 60.999999999999986 M 23.503000259399414 -6.502999782562254 L -26.503000259399414 -6.502999782562254 L -26.503000259399414 43.502998352050774 L 23.503000259399414 43.502998352050774 L 23.503000259399414 -6.502999782562254 z" fill="none" stroke="rgb(255,0,0)" stroke-width="0.001mm" />
</svg>